<?xml version="1.0" encoding="UTF-8" standalone="no"?>
<!DOCTYPE svg PUBLIC "-//W3C//DTD SVG 1.1//EN"
 "http://www.w3.org/Graphics/SVG/1.1/DTD/svg11.dtd">
<!-- Generated by graphviz version 2.40.1 (20161225.0304)
 -->
<!-- Title: homing Pages: 1 -->
<svg width="824pt" height="1463pt"
 viewBox="0.00 0.00 824.00 1463.00" xmlns="http://www.w3.org/2000/svg" xmlns:xlink="http://www.w3.org/1999/xlink">
<g id="graph0" class="graph" transform="scale(1 1) rotate(0) translate(4 1459)">
<title>homing</title>
<polygon fill="#ffffff" stroke="transparent" points="-4,4 -4,-1459 820,-1459 820,4 -4,4"/>
<!-- HOME_IDLE -->
<g id="node1" class="node">
<title>HOME_IDLE</title>
<ellipse fill="none" stroke="#000000" cx="145" cy="-1437" rx="61.99" ry="18"/>
<text text-anchor="middle" x="145" y="-1433.3" font-family="Times,serif" font-size="14.00" fill="#000000">HOME_IDLE</text>
</g>
<!-- HOME_START -->
<g id="node2" class="node">
<title>HOME_START</title>
<ellipse fill="none" stroke="#000000" cx="162" cy="-1335" rx="69.5877" ry="18"/>
<text text-anchor="middle" x="162" y="-1331.3" font-family="Times,serif" font-size="14.00" fill="#000000">HOME_START</text>
</g>
<!-- HOME_IDLE&#45;&gt;HOME_START -->
<g id="edge1" class="edge">
<title>HOME_IDLE&#45;&gt;HOME_START</title>
<path fill="none" stroke="#000000" d="M97.2705,-1425.431C85.0163,-1420.0704 73.2569,-1412.2818 66,-1401 58.7869,-1389.7862 58.4054,-1381.959 66,-1371 70.9831,-1363.8094 86.2931,-1356.8332 103.265,-1350.9668"/>
<polygon fill="#000000" stroke="#000000" points="104.4038,-1354.2768 112.8097,-1347.8276 102.2168,-1347.6272 104.4038,-1354.2768"/>
<text text-anchor="middle" x="135" y="-1382.3" font-family="Times,serif" font-size="14.00" fill="#000000">en EMCMOT_HOME(j)</text>
</g>
<!-- HOME_START&#45;&gt;HOME_IDLE -->
<g id="edge2" class="edge">
<title>HOME_START&#45;&gt;HOME_IDLE</title>
<path fill="none" stroke="#000000" d="M188.8366,-1351.9903C194.9484,-1357.2756 200.6291,-1363.6709 204,-1371 209.5714,-1383.1135 210.5261,-1389.373 204,-1401 200.6064,-1407.0461 195.7391,-1412.1968 190.2361,-1416.5484"/>
<polygon fill="#000000" stroke="#000000" points="188.0558,-1413.8006 181.8164,-1422.3634 192.0338,-1419.5604 188.0558,-1413.8006"/>
<text text-anchor="middle" x="256.5" y="-1389.8" font-family="Times,serif" font-size="14.00" fill="#000000">home compartido</text>
<text text-anchor="middle" x="256.5" y="-1374.8" font-family="Times,serif" font-size="14.00" fill="#000000">switch cerrado</text>
</g>
<!-- HOME_SET_SWITCH_POSITION -->
<g id="node3" class="node">
<title>HOME_SET_SWITCH_POSITION</title>
<ellipse fill="none" stroke="#000000" cx="183" cy="-483" rx="139.9756" ry="18"/>
<text text-anchor="middle" x="183" y="-479.3" font-family="Times,serif" font-size="14.00" fill="#000000">HOME_SET_SWITCH_POSITION</text>
</g>
<!-- HOME_START&#45;&gt;HOME_SET_SWITCH_POSITION -->
<g id="edge3" class="edge">
<title>HOME_START&#45;&gt;HOME_SET_SWITCH_POSITION</title>
<path fill="none" stroke="#000000" d="M123.3737,-1319.9251C89.6292,-1303.9276 46,-1275.1029 46,-1233 46,-1233 46,-1233 46,-600 46,-554.8742 89.5124,-523.4511 127.4929,-504.6182"/>
<polygon fill="#000000" stroke="#000000" points="129.4698,-507.5539 136.9999,-500.1008 126.4655,-501.2314 129.4698,-507.5539"/>
<text text-anchor="middle" x="109.5" y="-900.8" font-family="Times,serif" font-size="14.00" fill="#000000">sin switch para este eje</text>
<text text-anchor="middle" x="109.5" y="-885.8" font-family="Times,serif" font-size="14.00" fill="#000000">immediato</text>
</g>
<!-- HOME_INITIAL_SEARCH_START -->
<g id="node4" class="node">
<title>HOME_INITIAL_SEARCH_START</title>
<ellipse fill="none" stroke="#000000" cx="279" cy="-1233" rx="144.8743" ry="18"/>
<text text-anchor="middle" x="279" y="-1229.3" font-family="Times,serif" font-size="14.00" fill="#000000">HOME_INITIAL_SEARCH_START</text>
</g>
<!-- HOME_START&#45;&gt;HOME_INITIAL_SEARCH_START -->
<g id="edge4" class="edge">
<title>HOME_START&#45;&gt;HOME_INITIAL_SEARCH_START</title>
<path fill="none" stroke="#000000" d="M181.8475,-1317.6971C200.6938,-1301.2669 229.2278,-1276.3911 250.5028,-1257.8437"/>
<polygon fill="#000000" stroke="#000000" points="253.0282,-1260.2854 258.2659,-1251.0758 248.4282,-1255.009 253.0282,-1260.2854"/>
<text text-anchor="middle" x="271.5" y="-1287.8" font-family="Times,serif" font-size="14.00" fill="#000000">de otra forma</text>
<text text-anchor="middle" x="271.5" y="-1272.8" font-family="Times,serif" font-size="14.00" fill="#000000">inmediato</text>
</g>
<!-- HOME_FINAL_MOVE_START -->
<g id="node18" class="node">
<title>HOME_FINAL_MOVE_START</title>
<ellipse fill="none" stroke="#000000" cx="212" cy="-207" rx="129.9769" ry="18"/>
<text text-anchor="middle" x="212" y="-203.3" font-family="Times,serif" font-size="14.00" fill="#000000">HOME_FINAL_MOVE_START</text>
</g>
<!-- HOME_SET_SWITCH_POSITION&#45;&gt;HOME_FINAL_MOVE_START -->
<g id="edge22" class="edge">
<title>HOME_SET_SWITCH_POSITION&#45;&gt;HOME_FINAL_MOVE_START</title>
<path fill="none" stroke="#000000" d="M184.9028,-464.8909C189.8392,-417.9093 203.0853,-291.8431 209.035,-235.2189"/>
<polygon fill="#000000" stroke="#000000" points="212.526,-235.4868 210.0902,-225.1758 205.5643,-234.7553 212.526,-235.4868"/>
<text text-anchor="middle" x="225.5" y="-341.3" font-family="Times,serif" font-size="14.00" fill="#000000">inmediato</text>
</g>
<!-- HOME_INITIAL_BACKOFF_START -->
<g id="node5" class="node">
<title>HOME_INITIAL_BACKOFF_START</title>
<ellipse fill="none" stroke="#000000" cx="339" cy="-1116" rx="150.5735" ry="18"/>
<text text-anchor="middle" x="339" y="-1112.3" font-family="Times,serif" font-size="14.00" fill="#000000">HOME_INITIAL_BACKOFF_START</text>
</g>
<!-- HOME_INITIAL_SEARCH_START&#45;&gt;HOME_INITIAL_BACKOFF_START -->
<g id="edge7" class="edge">
<title>HOME_INITIAL_SEARCH_START&#45;&gt;HOME_INITIAL_BACKOFF_START</title>
<path fill="none" stroke="#000000" d="M288.2435,-1214.9752C298.0365,-1195.8787 313.6175,-1165.4958 324.9353,-1143.4262"/>
<polygon fill="#000000" stroke="#000000" points="328.1983,-1144.7334 329.6471,-1134.2381 321.9696,-1141.5391 328.1983,-1144.7334"/>
<text text-anchor="middle" x="397.5" y="-1185.8" font-family="Times,serif" font-size="14.00" fill="#000000">despues de HOME_DELAY</text>
<text text-anchor="middle" x="397.5" y="-1170.8" font-family="Times,serif" font-size="14.00" fill="#000000">si switch home cerrado</text>
<text text-anchor="middle" x="397.5" y="-1155.8" font-family="Times,serif" font-size="14.00" fill="#000000">inmediato</text>
</g>
<!-- HOME_INITIAL_SEARCH_WAIT -->
<g id="node7" class="node">
<title>HOME_INITIAL_SEARCH_WAIT</title>
<ellipse fill="none" stroke="#000000" cx="648" cy="-1116" rx="140.2752" ry="18"/>
<text text-anchor="middle" x="648" y="-1112.3" font-family="Times,serif" font-size="14.00" fill="#000000">HOME_INITIAL_SEARCH_WAIT</text>
</g>
<!-- HOME_INITIAL_SEARCH_START&#45;&gt;HOME_INITIAL_SEARCH_WAIT -->
<g id="edge8" class="edge">
<title>HOME_INITIAL_SEARCH_START&#45;&gt;HOME_INITIAL_SEARCH_WAIT</title>
<path fill="none" stroke="#000000" d="M381.2881,-1220.2014C413.343,-1214.7289 448.5505,-1207.1867 480,-1197 526.0365,-1182.0885 575.5775,-1156.9819 608.8417,-1138.6657"/>
<polygon fill="#000000" stroke="#000000" points="610.7398,-1141.615 617.7759,-1133.6938 607.3358,-1135.4983 610.7398,-1141.615"/>
<text text-anchor="middle" x="659.5" y="-1185.8" font-family="Times,serif" font-size="14.00" fill="#000000">despues de HOME_DELAY</text>
<text text-anchor="middle" x="659.5" y="-1170.8" font-family="Times,serif" font-size="14.00" fill="#000000">si switch home abierto</text>
<text text-anchor="middle" x="659.5" y="-1155.8" font-family="Times,serif" font-size="14.00" fill="#000000">inmediato</text>
</g>
<!-- HOME_INITIAL_BACKOFF_WAIT -->
<g id="node6" class="node">
<title>HOME_INITIAL_BACKOFF_WAIT</title>
<ellipse fill="none" stroke="#000000" cx="266" cy="-1014" rx="146.4744" ry="18"/>
<text text-anchor="middle" x="266" y="-1010.3" font-family="Times,serif" font-size="14.00" fill="#000000">HOME_INITIAL_BACKOFF_WAIT</text>
</g>
<!-- HOME_INITIAL_BACKOFF_START&#45;&gt;HOME_INITIAL_BACKOFF_WAIT -->
<g id="edge5" class="edge">
<title>HOME_INITIAL_BACKOFF_START&#45;&gt;HOME_INITIAL_BACKOFF_WAIT</title>
<path fill="none" stroke="#000000" d="M325.9491,-1097.7644C314.5302,-1081.8093 297.8015,-1058.4349 284.9152,-1040.4294"/>
<polygon fill="#000000" stroke="#000000" points="287.6041,-1038.1727 278.9379,-1032.0777 281.9117,-1042.2466 287.6041,-1038.1727"/>
<text text-anchor="middle" x="389.5" y="-1061.3" font-family="Times,serif" font-size="14.00" fill="#000000">despues de HOME_DELAY</text>
</g>
<!-- HOME_INITIAL_BACKOFF_WAIT&#45;&gt;HOME_INITIAL_SEARCH_START -->
<g id="edge6" class="edge">
<title>HOME_INITIAL_BACKOFF_WAIT&#45;&gt;HOME_INITIAL_SEARCH_START</title>
<path fill="none" stroke="#000000" d="M204.6388,-1030.3871C146.3987,-1049.2991 71.7775,-1084.3089 101,-1134 124.0521,-1173.1988 168.863,-1197.9977 207.7544,-1212.9723"/>
<polygon fill="#000000" stroke="#000000" points="206.9043,-1216.3894 217.4976,-1216.5706 209.3294,-1209.8229 206.9043,-1216.3894"/>
<text text-anchor="middle" x="140" y="-1112.3" font-family="Times,serif" font-size="14.00" fill="#000000">home_sw_fall</text>
</g>
<!-- HOME_SET_COARSE_POSITION -->
<g id="node8" class="node">
<title>HOME_SET_COARSE_POSITION</title>
<ellipse fill="none" stroke="#000000" cx="618" cy="-1014" rx="140.2752" ry="18"/>
<text text-anchor="middle" x="618" y="-1010.3" font-family="Times,serif" font-size="14.00" fill="#000000">HOME_SET_COARSE_POSITION</text>
</g>
<!-- HOME_INITIAL_SEARCH_WAIT&#45;&gt;HOME_SET_COARSE_POSITION -->
<g id="edge9" class="edge">
<title>HOME_INITIAL_SEARCH_WAIT&#45;&gt;HOME_SET_COARSE_POSITION</title>
<path fill="none" stroke="#000000" d="M642.6366,-1097.7644C638.0719,-1082.2445 631.4425,-1059.7044 626.2101,-1041.9143"/>
<polygon fill="#000000" stroke="#000000" points="629.4965,-1040.6837 623.317,-1032.0777 622.7809,-1042.6589 629.4965,-1040.6837"/>
<text text-anchor="middle" x="675.5" y="-1068.8" font-family="Times,serif" font-size="14.00" fill="#000000">home_sw_rise</text>
<text text-anchor="middle" x="675.5" y="-1053.8" font-family="Times,serif" font-size="14.00" fill="#000000">inmediato</text>
</g>
<!-- HOME_FINAL_BACKOFF_START -->
<g id="node9" class="node">
<title>HOME_FINAL_BACKOFF_START</title>
<ellipse fill="none" stroke="#000000" cx="618" cy="-897" rx="144.0747" ry="18"/>
<text text-anchor="middle" x="618" y="-893.3" font-family="Times,serif" font-size="14.00" fill="#000000">HOME_FINAL_BACKOFF_START</text>
</g>
<!-- HOME_SET_COARSE_POSITION&#45;&gt;HOME_FINAL_BACKOFF_START -->
<g id="edge10" class="edge">
<title>HOME_SET_COARSE_POSITION&#45;&gt;HOME_FINAL_BACKOFF_START</title>
<path fill="none" stroke="#000000" d="M618,-995.9752C618,-977.1356 618,-947.3112 618,-925.3213"/>
<polygon fill="#000000" stroke="#000000" points="621.5001,-925.2381 618,-915.2381 614.5001,-925.2381 621.5001,-925.2381"/>
<text text-anchor="middle" x="690.5" y="-966.8" font-family="Times,serif" font-size="14.00" fill="#000000">busqueda y enclavamiento</text>
<text text-anchor="middle" x="690.5" y="-951.8" font-family="Times,serif" font-size="14.00" fill="#000000">tienen igual direccion</text>
<text text-anchor="middle" x="690.5" y="-936.8" font-family="Times,serif" font-size="14.00" fill="#000000">inmediato</text>
</g>
<!-- HOME_FALL_SEARCH_START -->
<g id="node10" class="node">
<title>HOME_FALL_SEARCH_START</title>
<ellipse fill="none" stroke="#000000" cx="401" cy="-843" rx="134.5761" ry="18"/>
<text text-anchor="middle" x="401" y="-839.3" font-family="Times,serif" font-size="14.00" fill="#000000">HOME_FALL_SEARCH_START</text>
</g>
<!-- HOME_SET_COARSE_POSITION&#45;&gt;HOME_FALL_SEARCH_START -->
<g id="edge11" class="edge">
<title>HOME_SET_COARSE_POSITION&#45;&gt;HOME_FALL_SEARCH_START</title>
<path fill="none" stroke="#000000" d="M532.2564,-999.6616C505.1942,-993.7905 479.5808,-986.3936 469,-978 434.8279,-950.892 416.3643,-902.0764 407.6163,-871.1681"/>
<polygon fill="#000000" stroke="#000000" points="410.977,-870.187 405.0134,-861.4299 404.2144,-871.9946 410.977,-870.187"/>
<text text-anchor="middle" x="541.5" y="-966.8" font-family="Times,serif" font-size="14.00" fill="#000000">busqueda y enclavamiento</text>
<text text-anchor="middle" x="541.5" y="-951.8" font-family="Times,serif" font-size="14.00" fill="#000000">tienen direccion opuesta</text>
<text text-anchor="middle" x="541.5" y="-936.8" font-family="Times,serif" font-size="14.00" fill="#000000">inmediato</text>
</g>
<!-- HOME_FINAL_BACKOFF_WAIT -->
<g id="node11" class="node">
<title>HOME_FINAL_BACKOFF_WAIT</title>
<ellipse fill="none" stroke="#000000" cx="618" cy="-789" rx="139.9756" ry="18"/>
<text text-anchor="middle" x="618" y="-785.3" font-family="Times,serif" font-size="14.00" fill="#000000">HOME_FINAL_BACKOFF_WAIT</text>
</g>
<!-- HOME_FINAL_BACKOFF_START&#45;&gt;HOME_FINAL_BACKOFF_WAIT -->
<g id="edge12" class="edge">
<title>HOME_FINAL_BACKOFF_START&#45;&gt;HOME_FINAL_BACKOFF_WAIT</title>
<path fill="none" stroke="#000000" d="M618,-878.6793C618,-861.821 618,-836.5651 618,-817.147"/>
<polygon fill="#000000" stroke="#000000" points="621.5001,-817.0501 618,-807.0502 614.5001,-817.0502 621.5001,-817.0501"/>
<text text-anchor="middle" x="696.5" y="-839.3" font-family="Times,serif" font-size="14.00" fill="#000000">despues de HOME_DELAY</text>
</g>
<!-- HOME_FALL_SEARCH_WAIT -->
<g id="node15" class="node">
<title>HOME_FALL_SEARCH_WAIT</title>
<ellipse fill="none" stroke="#000000" cx="333" cy="-600" rx="129.9769" ry="18"/>
<text text-anchor="middle" x="333" y="-596.3" font-family="Times,serif" font-size="14.00" fill="#000000">HOME_FALL_SEARCH_WAIT</text>
</g>
<!-- HOME_FALL_SEARCH_START&#45;&gt;HOME_FALL_SEARCH_WAIT -->
<g id="edge17" class="edge">
<title>HOME_FALL_SEARCH_START&#45;&gt;HOME_FALL_SEARCH_WAIT</title>
<path fill="none" stroke="#000000" d="M395.8889,-824.7355C384.095,-782.5896 354.9143,-678.3115 340.8399,-628.0163"/>
<polygon fill="#000000" stroke="#000000" points="344.143,-626.8318 338.0776,-618.145 337.402,-628.7182 344.143,-626.8318"/>
<text text-anchor="middle" x="453.5" y="-734.3" font-family="Times,serif" font-size="14.00" fill="#000000">despues de HOME_DELAY</text>
</g>
<!-- HOME_RISE_SEARCH_START -->
<g id="node12" class="node">
<title>HOME_RISE_SEARCH_START</title>
<ellipse fill="none" stroke="#000000" cx="618" cy="-687" rx="131.8766" ry="18"/>
<text text-anchor="middle" x="618" y="-683.3" font-family="Times,serif" font-size="14.00" fill="#000000">HOME_RISE_SEARCH_START</text>
</g>
<!-- HOME_FINAL_BACKOFF_WAIT&#45;&gt;HOME_RISE_SEARCH_START -->
<g id="edge13" class="edge">
<title>HOME_FINAL_BACKOFF_WAIT&#45;&gt;HOME_RISE_SEARCH_START</title>
<path fill="none" stroke="#000000" d="M618,-770.7644C618,-755.317 618,-732.9149 618,-715.164"/>
<polygon fill="#000000" stroke="#000000" points="621.5001,-715.0776 618,-705.0777 614.5001,-715.0777 621.5001,-715.0776"/>
<text text-anchor="middle" x="657" y="-741.8" font-family="Times,serif" font-size="14.00" fill="#000000">home_sw_fall</text>
<text text-anchor="middle" x="657" y="-726.8" font-family="Times,serif" font-size="14.00" fill="#000000">inmediato</text>
</g>
<!-- HOME_RISE_SEARCH_WAIT -->
<g id="node13" class="node">
<title>HOME_RISE_SEARCH_WAIT</title>
<ellipse fill="none" stroke="#000000" cx="618" cy="-600" rx="127.2775" ry="18"/>
<text text-anchor="middle" x="618" y="-596.3" font-family="Times,serif" font-size="14.00" fill="#000000">HOME_RISE_SEARCH_WAIT</text>
</g>
<!-- HOME_RISE_SEARCH_START&#45;&gt;HOME_RISE_SEARCH_WAIT -->
<g id="edge14" class="edge">
<title>HOME_RISE_SEARCH_START&#45;&gt;HOME_RISE_SEARCH_WAIT</title>
<path fill="none" stroke="#000000" d="M618,-668.9735C618,-657.1918 618,-641.5607 618,-628.1581"/>
<polygon fill="#000000" stroke="#000000" points="621.5001,-628.0033 618,-618.0034 614.5001,-628.0034 621.5001,-628.0033"/>
<text text-anchor="middle" x="696.5" y="-639.8" font-family="Times,serif" font-size="14.00" fill="#000000">despues de HOME_DELAY</text>
</g>
<!-- HOME_RISE_SEARCH_WAIT&#45;&gt;HOME_SET_SWITCH_POSITION -->
<g id="edge16" class="edge">
<title>HOME_RISE_SEARCH_WAIT&#45;&gt;HOME_SET_SWITCH_POSITION</title>
<path fill="none" stroke="#000000" d="M536.9281,-586.0775C510.3552,-580.1607 485.0562,-572.6253 475,-564 458.5214,-549.8662 473.267,-532.159 456,-519 454.2886,-517.6957 368.0842,-506.4632 293.0051,-496.8872"/>
<polygon fill="#000000" stroke="#000000" points="293.3306,-493.4004 282.9684,-495.6084 292.4458,-500.3443 293.3306,-493.4004"/>
<text text-anchor="middle" x="538.5" y="-552.8" font-family="Times,serif" font-size="14.00" fill="#000000">home_sw_rise</text>
<text text-anchor="middle" x="538.5" y="-537.8" font-family="Times,serif" font-size="14.00" fill="#000000">!HOME_USE_INDEX</text>
<text text-anchor="middle" x="538.5" y="-522.8" font-family="Times,serif" font-size="14.00" fill="#000000">inmediato</text>
</g>
<!-- HOME_INDEX_SEARCH_START -->
<g id="node14" class="node">
<title>HOME_INDEX_SEARCH_START</title>
<ellipse fill="none" stroke="#000000" cx="480" cy="-483" rx="139.9756" ry="18"/>
<text text-anchor="middle" x="480" y="-479.3" font-family="Times,serif" font-size="14.00" fill="#000000">HOME_INDEX_SEARCH_START</text>
</g>
<!-- HOME_RISE_SEARCH_WAIT&#45;&gt;HOME_INDEX_SEARCH_START -->
<g id="edge15" class="edge">
<title>HOME_RISE_SEARCH_WAIT&#45;&gt;HOME_INDEX_SEARCH_START</title>
<path fill="none" stroke="#000000" d="M620.5023,-581.9252C621.9445,-563.8107 621.0882,-536.2103 606,-519 599.926,-512.0717 585.0814,-505.9236 567.6246,-500.7556"/>
<polygon fill="#000000" stroke="#000000" points="568.2694,-497.302 557.6967,-497.9867 566.3887,-504.0446 568.2694,-497.302"/>
<text text-anchor="middle" x="681" y="-552.8" font-family="Times,serif" font-size="14.00" fill="#000000">home_sw_rise</text>
<text text-anchor="middle" x="681" y="-537.8" font-family="Times,serif" font-size="14.00" fill="#000000">HOME_USE_INDEX</text>
<text text-anchor="middle" x="681" y="-522.8" font-family="Times,serif" font-size="14.00" fill="#000000">inmediato</text>
</g>
<!-- HOME_INDEX_SEARCH_WAIT -->
<g id="node16" class="node">
<title>HOME_INDEX_SEARCH_WAIT</title>
<ellipse fill="none" stroke="#000000" cx="431" cy="-396" rx="135.6761" ry="18"/>
<text text-anchor="middle" x="431" y="-392.3" font-family="Times,serif" font-size="14.00" fill="#000000">HOME_INDEX_SEARCH_WAIT</text>
</g>
<!-- HOME_INDEX_SEARCH_START&#45;&gt;HOME_INDEX_SEARCH_WAIT -->
<g id="edge20" class="edge">
<title>HOME_INDEX_SEARCH_START&#45;&gt;HOME_INDEX_SEARCH_WAIT</title>
<path fill="none" stroke="#000000" d="M469.8472,-464.9735C463.0144,-452.8418 453.8828,-436.6287 446.1899,-422.9698"/>
<polygon fill="#000000" stroke="#000000" points="449.0968,-420.9989 441.1398,-414.0034 442.9977,-424.4341 449.0968,-420.9989"/>
<text text-anchor="middle" x="485.5" y="-435.8" font-family="Times,serif" font-size="14.00" fill="#000000">inmediato</text>
</g>
<!-- HOME_FALL_SEARCH_WAIT&#45;&gt;HOME_SET_SWITCH_POSITION -->
<g id="edge19" class="edge">
<title>HOME_FALL_SEARCH_WAIT&#45;&gt;HOME_SET_SWITCH_POSITION</title>
<path fill="none" stroke="#000000" d="M247.0727,-586.3764C222.46,-580.7306 200.0817,-573.2941 192,-564 179.6215,-549.7646 177.6956,-528.3862 178.6921,-511.1664"/>
<polygon fill="#000000" stroke="#000000" points="182.1888,-511.3626 179.623,-501.0832 175.2185,-510.7191 182.1888,-511.3626"/>
<text text-anchor="middle" x="255.5" y="-552.8" font-family="Times,serif" font-size="14.00" fill="#000000">home_sw_fall</text>
<text text-anchor="middle" x="255.5" y="-537.8" font-family="Times,serif" font-size="14.00" fill="#000000">!HOME_USE_INDEX</text>
<text text-anchor="middle" x="255.5" y="-522.8" font-family="Times,serif" font-size="14.00" fill="#000000">inmediato</text>
</g>
<!-- HOME_FALL_SEARCH_WAIT&#45;&gt;HOME_INDEX_SEARCH_START -->
<g id="edge18" class="edge">
<title>HOME_FALL_SEARCH_WAIT&#45;&gt;HOME_INDEX_SEARCH_START</title>
<path fill="none" stroke="#000000" d="M327.4163,-581.8077C323.1203,-563.8613 320.0145,-536.6276 334,-519 340.5485,-510.7461 357.482,-504.1182 377.6007,-498.9115"/>
<polygon fill="#000000" stroke="#000000" points="378.4761,-502.3008 387.3704,-496.5439 376.8273,-495.4977 378.4761,-502.3008"/>
<text text-anchor="middle" x="395" y="-552.8" font-family="Times,serif" font-size="14.00" fill="#000000">home_sw_fall</text>
<text text-anchor="middle" x="395" y="-537.8" font-family="Times,serif" font-size="14.00" fill="#000000">HOME_USE_INDEX</text>
<text text-anchor="middle" x="395" y="-522.8" font-family="Times,serif" font-size="14.00" fill="#000000">inmediato</text>
</g>
<!-- HOME_SET_INDEX_POSITION -->
<g id="node17" class="node">
<title>HOME_SET_INDEX_POSITION</title>
<ellipse fill="none" stroke="#000000" cx="361" cy="-294" rx="133.4768" ry="18"/>
<text text-anchor="middle" x="361" y="-290.3" font-family="Times,serif" font-size="14.00" fill="#000000">HOME_SET_INDEX_POSITION</text>
</g>
<!-- HOME_INDEX_SEARCH_WAIT&#45;&gt;HOME_SET_INDEX_POSITION -->
<g id="edge21" class="edge">
<title>HOME_INDEX_SEARCH_WAIT&#45;&gt;HOME_SET_INDEX_POSITION</title>
<path fill="none" stroke="#000000" d="M418.4854,-377.7644C407.5358,-361.8093 391.4946,-338.4349 379.1378,-320.4294"/>
<polygon fill="#000000" stroke="#000000" points="381.9505,-318.3424 373.4063,-312.0777 376.1789,-322.3033 381.9505,-318.3424"/>
<text text-anchor="middle" x="451" y="-348.8" font-family="Times,serif" font-size="14.00" fill="#000000">index encontrado</text>
<text text-anchor="middle" x="451" y="-333.8" font-family="Times,serif" font-size="14.00" fill="#000000">inmediato</text>
</g>
<!-- HOME_SET_INDEX_POSITION&#45;&gt;HOME_FINAL_MOVE_START -->
<g id="edge23" class="edge">
<title>HOME_SET_INDEX_POSITION&#45;&gt;HOME_FINAL_MOVE_START</title>
<path fill="none" stroke="#000000" d="M330.8476,-276.3943C307.8242,-262.9511 275.9164,-244.3203 250.9587,-229.7477"/>
<polygon fill="#000000" stroke="#000000" points="252.5081,-226.5994 242.1075,-224.5796 248.9784,-232.6444 252.5081,-226.5994"/>
<text text-anchor="middle" x="322.5" y="-246.8" font-family="Times,serif" font-size="14.00" fill="#000000">inmediato</text>
</g>
<!-- HOME_FINAL_MOVE_WAIT -->
<g id="node19" class="node">
<title>HOME_FINAL_MOVE_WAIT</title>
<ellipse fill="none" stroke="#000000" cx="212" cy="-120" rx="126.1777" ry="18"/>
<text text-anchor="middle" x="212" y="-116.3" font-family="Times,serif" font-size="14.00" fill="#000000">HOME_FINAL_MOVE_WAIT</text>
</g>
<!-- HOME_FINAL_MOVE_START&#45;&gt;HOME_FINAL_MOVE_WAIT -->
<g id="edge24" class="edge">
<title>HOME_FINAL_MOVE_START&#45;&gt;HOME_FINAL_MOVE_WAIT</title>
<path fill="none" stroke="#000000" d="M212,-188.9735C212,-177.1918 212,-161.5607 212,-148.1581"/>
<polygon fill="#000000" stroke="#000000" points="215.5001,-148.0033 212,-138.0034 208.5001,-148.0034 215.5001,-148.0033"/>
<text text-anchor="middle" x="290.5" y="-159.8" font-family="Times,serif" font-size="14.00" fill="#000000">despues de HOME_DELAY</text>
</g>
<!-- HOME_ABORT -->
<g id="node20" class="node">
<title>HOME_ABORT</title>
<ellipse fill="none" stroke="#000000" cx="459" cy="-18" rx="71.4873" ry="18"/>
<text text-anchor="middle" x="459" y="-14.3" font-family="Times,serif" font-size="14.00" fill="#000000">HOME_ABORT</text>
</g>
<!-- HOME_FINAL_MOVE_WAIT&#45;&gt;HOME_ABORT -->
<g id="edge25" class="edge">
<title>HOME_FINAL_MOVE_WAIT&#45;&gt;HOME_ABORT</title>
<path fill="none" stroke="#000000" d="M258.0757,-103.0417C273.6721,-97.1683 291.15,-90.4401 307,-84 343.4362,-69.1955 384.3026,-51.3818 414.4776,-37.9943"/>
<polygon fill="#000000" stroke="#000000" points="416.165,-41.0744 423.8798,-33.8127 413.3204,-34.6785 416.165,-41.0744"/>
<text text-anchor="middle" x="398.5" y="-65.3" font-family="Times,serif" font-size="14.00" fill="#000000">en limite</text>
</g>
<!-- HOME_FINISHED -->
<g id="node21" class="node">
<title>HOME_FINISHED</title>
<ellipse fill="none" stroke="#000000" cx="89" cy="-18" rx="81.4863" ry="18"/>
<text text-anchor="middle" x="89" y="-14.3" font-family="Times,serif" font-size="14.00" fill="#000000">HOME_FINISHED</text>
</g>
<!-- HOME_FINAL_MOVE_WAIT&#45;&gt;HOME_FINISHED -->
<g id="edge26" class="edge">
<title>HOME_FINAL_MOVE_WAIT&#45;&gt;HOME_FINISHED</title>
<path fill="none" stroke="#000000" d="M190.575,-102.233C170.4684,-85.5592 140.2395,-60.4913 117.9844,-42.0359"/>
<polygon fill="#000000" stroke="#000000" points="120.1112,-39.2527 110.1794,-35.5634 115.6429,-44.641 120.1112,-39.2527"/>
<text text-anchor="middle" x="234" y="-65.3" font-family="Times,serif" font-size="14.00" fill="#000000">posicion home alcanzada</text>
</g>
<!-- HOME_ABORT&#45;&gt;HOME_IDLE -->
<g id="edge29" class="edge">
<title>HOME_ABORT&#45;&gt;HOME_IDLE</title>
<path fill="none" stroke="#000000" d="M527.4108,-23.5517C631.0717,-33.8763 816,-60.6169 816,-120 816,-1335 816,-1335 816,-1335 816,-1395.1839 388.6327,-1424.2711 216.0336,-1433.5644"/>
<polygon fill="#000000" stroke="#000000" points="215.8277,-1430.0703 206.0276,-1434.0963 216.1993,-1437.0604 215.8277,-1430.0703"/>
</g>
<!-- HOME_FINISHED&#45;&gt;HOME_IDLE -->
<g id="edge27" class="edge">
<title>HOME_FINISHED&#45;&gt;HOME_IDLE</title>
<path fill="none" stroke="#000000" d="M59.8581,-35.0737C33.9019,-52.7164 0,-82.8673 0,-120 0,-1335 0,-1335 0,-1335 0,-1380.1628 47.6391,-1407.0636 88.3049,-1421.7995"/>
<polygon fill="#000000" stroke="#000000" points="87.3279,-1425.1648 97.9227,-1425.1122 89.6076,-1418.5463 87.3279,-1425.1648"/>
</g>
<!-- cualquiera -->
<g id="node22" class="node">
<title>cualquiera</title>
<ellipse fill="none" stroke="#000000" cx="459" cy="-120" rx="47.3916" ry="18"/>
<text text-anchor="middle" x="459" y="-116.3" font-family="Times,serif" font-size="14.00" fill="#000000">cualquiera</text>
</g>
<!-- cualquiera&#45;&gt;HOME_ABORT -->
<g id="edge28" class="edge">
<title>cualquiera&#45;&gt;HOME_ABORT</title>
<path fill="none" stroke="#000000" d="M459,-101.7644C459,-86.317 459,-63.9149 459,-46.164"/>
<polygon fill="#000000" stroke="#000000" points="462.5001,-46.0776 459,-36.0777 455.5001,-46.0777 462.5001,-46.0776"/>
<text text-anchor="middle" x="510.5" y="-72.8" font-family="Times,serif" font-size="14.00" fill="#000000">limite tocado</text>
<text text-anchor="middle" x="510.5" y="-57.8" font-family="Times,serif" font-size="14.00" fill="#000000">fin de movimiento</text>
</g>
</g>
</svg>
