<?xml version="1.0" encoding="UTF-8" standalone="no"?>
<!DOCTYPE svg PUBLIC "-//W3C//DTD SVG 1.1//EN"
 "http://www.w3.org/Graphics/SVG/1.1/DTD/svg11.dtd">
<!-- Generated by graphviz version 2.40.1 (20161225.0304)
 -->
<!-- Title: net Pages: 1 -->
<svg width="401pt" height="359pt"
 viewBox="0.00 0.00 401.35 359.00" xmlns="http://www.w3.org/2000/svg" xmlns:xlink="http://www.w3.org/1999/xlink">
<g id="graph0" class="graph" transform="scale(1 1) rotate(0) translate(4 355)">
<title>net</title>
<polygon fill="#ffffff" stroke="transparent" points="-4,4 -4,-355 397.3466,-355 397.3466,4 -4,4"/>
<!-- IDLE -->
<g id="node1" class="node">
<title>IDLE</title>
<ellipse fill="none" stroke="#000000" cx="147.3466" cy="-333" rx="30.5947" ry="18"/>
<text text-anchor="middle" x="147.3466" y="-329.3" font-family="Times,serif" font-size="14.00" fill="#000000">IDLE</text>
</g>
<!-- START -->
<g id="node3" class="node">
<title>START</title>
<ellipse fill="none" stroke="#000000" cx="38.3466" cy="-241.5" rx="38.1938" ry="18"/>
<text text-anchor="middle" x="38.3466" y="-237.8" font-family="Times,serif" font-size="14.00" fill="#000000">START</text>
</g>
<!-- IDLE&#45;&gt;START -->
<g id="edge1" class="edge">
<title>IDLE&#45;&gt;START</title>
<path fill="none" stroke="#000000" d="M117.2698,-329.7338C79.5326,-324.9441 18.0785,-314.6174 4.3466,-297 -3.647,-286.7447 2.4151,-274.4953 11.512,-264.1165"/>
<polygon fill="#000000" stroke="#000000" points="14.0325,-266.545 18.5147,-256.945 9.0242,-261.6545 14.0325,-266.545"/>
<text text-anchor="middle" x="68.8466" y="-285.8" font-family="Times,serif" font-size="14.00" fill="#000000">EMCMOT_HOME(&#45;1)</text>
</g>
<!-- START_JOINTS -->
<g id="node2" class="node">
<title>START_JOINTS</title>
<ellipse fill="none" stroke="#000000" cx="95.3466" cy="-135" rx="72.2875" ry="18"/>
<text text-anchor="middle" x="95.3466" y="-131.3" font-family="Times,serif" font-size="14.00" fill="#000000">START_JOINTS</text>
</g>
<!-- START_JOINTS&#45;&gt;IDLE -->
<g id="edge5" class="edge">
<title>START_JOINTS&#45;&gt;IDLE</title>
<path fill="none" stroke="#000000" d="M100.0798,-153.0226C109.1857,-187.695 129.1982,-263.8966 140.0327,-305.151"/>
<polygon fill="#000000" stroke="#000000" points="136.7148,-306.2967 142.6402,-315.0796 143.4852,-304.5185 136.7148,-306.2967"/>
<text text-anchor="middle" x="167.8466" y="-252.8" font-family="Times,serif" font-size="14.00" fill="#000000">si no quedan</text>
<text text-anchor="middle" x="167.8466" y="-237.8" font-family="Times,serif" font-size="14.00" fill="#000000"> articulaciones</text>
<text text-anchor="middle" x="167.8466" y="-222.8" font-family="Times,serif" font-size="14.00" fill="#000000">sin home</text>
</g>
<!-- WAIT_JOINTS -->
<g id="node4" class="node">
<title>WAIT_JOINTS</title>
<ellipse fill="none" stroke="#000000" cx="112.3466" cy="-18" rx="67.6881" ry="18"/>
<text text-anchor="middle" x="112.3466" y="-14.3" font-family="Times,serif" font-size="14.00" fill="#000000">WAIT_JOINTS</text>
</g>
<!-- START_JOINTS&#45;&gt;WAIT_JOINTS -->
<g id="edge3" class="edge">
<title>START_JOINTS&#45;&gt;WAIT_JOINTS</title>
<path fill="none" stroke="#000000" d="M92.2104,-117.0072C89.9433,-100.3937 88.1043,-75.1639 93.3466,-54 94.0873,-51.0096 95.1267,-47.9937 96.3416,-45.0477"/>
<polygon fill="#000000" stroke="#000000" points="99.5151,-46.5242 100.6694,-35.9925 93.1994,-43.5057 99.5151,-46.5242"/>
</g>
<!-- START&#45;&gt;START_JOINTS -->
<g id="edge2" class="edge">
<title>START&#45;&gt;START_JOINTS</title>
<path fill="none" stroke="#000000" d="M47.759,-223.9137C56.7807,-207.0574 70.525,-181.3772 80.9271,-161.9418"/>
<polygon fill="#000000" stroke="#000000" points="84.0967,-163.4366 85.7297,-152.9684 77.9251,-160.1335 84.0967,-163.4366"/>
</g>
<!-- WAIT_JOINTS&#45;&gt;IDLE -->
<g id="edge6" class="edge">
<title>WAIT_JOINTS&#45;&gt;IDLE</title>
<path fill="none" stroke="#000000" d="M169.6924,-27.6276C198.3761,-33.7338 228.7908,-42.6324 237.3466,-54 293.9013,-129.1412 252.4274,-179.4009 211.3466,-264 202.4571,-282.3066 187.0675,-299.1332 173.6074,-311.5864"/>
<polygon fill="#000000" stroke="#000000" points="171.1074,-309.1261 165.9689,-318.3914 175.7638,-314.3527 171.1074,-309.1261"/>
<text text-anchor="middle" x="324.3466" y="-189.8" font-family="Times,serif" font-size="14.00" fill="#000000">la articulacion tiene error</text>
<text text-anchor="middle" x="324.3466" y="-174.8" font-family="Times,serif" font-size="14.00" fill="#000000"> en su camino a home</text>
</g>
<!-- WAIT_JOINTS&#45;&gt;START_JOINTS -->
<g id="edge4" class="edge">
<title>WAIT_JOINTS&#45;&gt;START_JOINTS</title>
<path fill="none" stroke="#000000" d="M109.6966,-36.2381C106.9473,-55.1601 102.6121,-84.9961 99.4256,-106.9267"/>
<polygon fill="#000000" stroke="#000000" points="95.9399,-106.5758 97.9656,-116.9752 102.8672,-107.5824 95.9399,-106.5758"/>
<text text-anchor="middle" x="169.8466" y="-87.8" font-family="Times,serif" font-size="14.00" fill="#000000">todas las articulaciones</text>
<text text-anchor="middle" x="169.8466" y="-72.8" font-family="Times,serif" font-size="14.00" fill="#000000">en la secuencia</text>
<text text-anchor="middle" x="169.8466" y="-57.8" font-family="Times,serif" font-size="14.00" fill="#000000"> han adquirido home</text>
</g>
<!-- WAIT_JOINTS&#45;&gt;WAIT_JOINTS -->
<g id="edge7" class="edge">
<title>WAIT_JOINTS&#45;&gt;WAIT_JOINTS</title>
<path fill="none" stroke="#000000" d="M166.2601,-28.8743C183.897,-28.8181 197.9406,-25.1934 197.9406,-18 197.9406,-12.2678 189.0228,-8.8017 176.4752,-7.6016"/>
<polygon fill="#000000" stroke="#000000" points="176.4122,-4.095 166.2601,-7.1257 176.0864,-11.0874 176.4122,-4.095"/>
</g>
</g>
</svg>
