<?xml version="1.0" encoding="UTF-8" standalone="no"?>
<!DOCTYPE svg PUBLIC "-//W3C//DTD SVG 1.1//EN"
 "http://www.w3.org/Graphics/SVG/1.1/DTD/svg11.dtd">
<!-- Generated by graphviz version 2.40.1 (20161225.0304)
 -->
<!-- Title: task&#45;state&#45;transition Pages: 1 -->
<svg width="210pt" height="218pt"
 viewBox="0.00 0.00 209.53 218.00" xmlns="http://www.w3.org/2000/svg" xmlns:xlink="http://www.w3.org/1999/xlink">
<g id="graph0" class="graph" transform="scale(1 1) rotate(0) translate(4 214)">
<title>task&#45;state&#45;transition</title>
<polygon fill="#ffffff" stroke="transparent" points="-4,4 -4,-214 205.5287,-214 205.5287,4 -4,4"/>
<!-- E&#45;stop -->
<g id="node1" class="node">
<title>E&#45;stop</title>
<ellipse fill="none" stroke="#000000" stroke-width="2" cx="134.5287" cy="-192" rx="33.5952" ry="18"/>
<text text-anchor="middle" x="134.5287" y="-188.3" font-family="Times,serif" font-size="14.00" fill="#000000">E&#45;stop</text>
</g>
<!-- E&#45;stop Reset -->
<g id="node2" class="node">
<title>E&#45;stop Reset</title>
<ellipse fill="none" stroke="#000000" cx="67.5287" cy="-105" rx="55.7903" ry="18"/>
<text text-anchor="middle" x="67.5287" y="-101.3" font-family="Times,serif" font-size="14.00" fill="#000000">E&#45;stop Reset</text>
</g>
<!-- E&#45;stop&#45;&gt;E&#45;stop Reset -->
<g id="edge1" class="edge">
<title>E&#45;stop&#45;&gt;E&#45;stop Reset</title>
<path fill="none" stroke="#000000" d="M101.5069,-187.4696C82.2753,-182.9492 59.5194,-173.9385 47.5287,-156 42.5366,-148.5317 43.9508,-139.6318 47.7236,-131.3733"/>
<polygon fill="#000000" stroke="#000000" points="50.9028,-132.8613 52.7697,-122.4322 44.8066,-129.4208 50.9028,-132.8613"/>
<text text-anchor="middle" x="80.0287" y="-144.8" font-family="Times,serif" font-size="14.00" fill="#000000">Estop Reset</text>
</g>
<!-- E&#45;stop Reset&#45;&gt;E&#45;stop -->
<g id="edge2" class="edge">
<title>E&#45;stop Reset&#45;&gt;E&#45;stop</title>
<path fill="none" stroke="#000000" d="M92.3973,-121.3832C99.5643,-126.974 106.9461,-133.6817 112.5287,-141 117.8507,-147.9768 122.169,-156.4378 125.5247,-164.4463"/>
<polygon fill="#000000" stroke="#000000" points="122.2883,-165.7817 129.1432,-173.8602 128.8222,-163.2702 122.2883,-165.7817"/>
<text text-anchor="middle" x="137.0287" y="-144.8" font-family="Times,serif" font-size="14.00" fill="#000000">Estop</text>
</g>
<!-- Machine On -->
<g id="node3" class="node">
<title>Machine On</title>
<ellipse fill="none" stroke="#000000" cx="94.5287" cy="-18" rx="55.4913" ry="18"/>
<text text-anchor="middle" x="94.5287" y="-14.3" font-family="Times,serif" font-size="14.00" fill="#000000">Machine On</text>
</g>
<!-- E&#45;stop Reset&#45;&gt;Machine On -->
<g id="edge3" class="edge">
<title>E&#45;stop Reset&#45;&gt;Machine On</title>
<path fill="none" stroke="#000000" d="M29.6071,-91.6114C10.3304,-82.5842 -7.0147,-69.5095 3.5287,-54 11.1402,-42.8033 22.8306,-35.089 35.3229,-29.774"/>
<polygon fill="#000000" stroke="#000000" points="36.8399,-32.9434 44.9779,-26.1593 34.3855,-26.3878 36.8399,-32.9434"/>
<text text-anchor="middle" x="38.0287" y="-57.8" font-family="Times,serif" font-size="14.00" fill="#000000">Machine On</text>
</g>
<!-- Machine On&#45;&gt;E&#45;stop -->
<g id="edge4" class="edge">
<title>Machine On&#45;&gt;E&#45;stop</title>
<path fill="none" stroke="#000000" d="M132.7183,-31.1072C142.8921,-36.5424 152.672,-43.9859 158.5287,-54 181.4194,-93.1397 169.3103,-112.4968 156.5287,-156 155.4756,-159.5841 153.969,-163.1689 152.2314,-166.6119"/>
<polygon fill="#000000" stroke="#000000" points="149.1889,-164.8817 147.2449,-175.2967 155.2595,-168.3673 149.1889,-164.8817"/>
<text text-anchor="middle" x="186.0287" y="-101.3" font-family="Times,serif" font-size="14.00" fill="#000000">Estop</text>
</g>
<!-- Machine On&#45;&gt;E&#45;stop Reset -->
<g id="edge5" class="edge">
<title>Machine On&#45;&gt;E&#45;stop Reset</title>
<path fill="none" stroke="#000000" d="M88.9414,-36.0034C85.2504,-47.8967 80.3397,-63.72 76.1522,-77.2132"/>
<polygon fill="#000000" stroke="#000000" points="72.7444,-76.3855 73.1231,-86.9735 79.4299,-78.4603 72.7444,-76.3855"/>
<text text-anchor="middle" x="119.0287" y="-57.8" font-family="Times,serif" font-size="14.00" fill="#000000">Machine Off</text>
</g>
</g>
</svg>
