<?xml version="1.0" encoding="UTF-8" standalone="no"?>
<!DOCTYPE svg PUBLIC "-//W3C//DTD SVG 1.1//EN"
 "http://www.w3.org/Graphics/SVG/1.1/DTD/svg11.dtd">
<!-- Generated by graphviz version 2.43.0 (0)
 -->
<!-- Title: net Pages: 1 -->
<svg width="470pt" height="335pt"
 viewBox="0.00 0.00 469.90 335.00" xmlns="http://www.w3.org/2000/svg" xmlns:xlink="http://www.w3.org/1999/xlink">
<g id="graph0" class="graph" transform="scale(1 1) rotate(0) translate(4 331)">
<title>net</title>
<polygon fill="white" stroke="transparent" points="-4,4 -4,-331 465.9,-331 465.9,4 -4,4"/>
<!-- IDLE -->
<g id="node1" class="node">
<title>IDLE</title>
<ellipse fill="none" stroke="black" cx="189.9" cy="-309" rx="34.39" ry="18"/>
<text text-anchor="middle" x="189.9" y="-305.3" font-family="Times,serif" font-size="14.00">IDLE</text>
</g>
<!-- START -->
<g id="node3" class="node">
<title>START</title>
<ellipse fill="none" stroke="black" cx="98.9" cy="-222" rx="41.69" ry="18"/>
<text text-anchor="middle" x="98.9" y="-218.3" font-family="Times,serif" font-size="14.00">START</text>
</g>
<!-- IDLE&#45;&gt;START -->
<g id="edge1" class="edge">
<title>IDLE&#45;&gt;START</title>
<path fill="none" stroke="black" d="M155.63,-306.57C107.5,-303.75 23.67,-295.65 4.9,-273 -12.02,-252.58 19.55,-239.34 50.57,-231.65"/>
<polygon fill="black" stroke="black" points="51.6,-235.01 60.56,-229.35 50.03,-228.18 51.6,-235.01"/>
<text text-anchor="middle" x="90.4" y="-261.8" font-family="Times,serif" font-size="14.00">on EMCMOT_HOME(&#45;1)</text>
</g>
<!-- START_JOINTS -->
<g id="node2" class="node">
<title>START_JOINTS</title>
<ellipse fill="none" stroke="black" cx="116.9" cy="-120" rx="79.89" ry="18"/>
<text text-anchor="middle" x="116.9" y="-116.3" font-family="Times,serif" font-size="14.00">START_JOINTS</text>
</g>
<!-- START_JOINTS&#45;&gt;IDLE -->
<g id="edge5" class="edge">
<title>START_JOINTS&#45;&gt;IDLE</title>
<path fill="none" stroke="black" d="M125.1,-138.01C137.25,-163.62 160.27,-213.81 175.9,-258 178.5,-265.36 180.94,-273.47 183.04,-280.97"/>
<polygon fill="black" stroke="black" points="179.68,-281.95 185.66,-290.7 186.44,-280.13 179.68,-281.95"/>
<text text-anchor="middle" x="220.4" y="-218.3" font-family="Times,serif" font-size="14.00">if no joints left</text>
</g>
<!-- WAIT_JOINTS -->
<g id="node4" class="node">
<title>WAIT_JOINTS</title>
<ellipse fill="none" stroke="black" cx="135.9" cy="-18" rx="73.39" ry="18"/>
<text text-anchor="middle" x="135.9" y="-14.3" font-family="Times,serif" font-size="14.00">WAIT_JOINTS</text>
</g>
<!-- START_JOINTS&#45;&gt;WAIT_JOINTS -->
<g id="edge3" class="edge">
<title>START_JOINTS&#45;&gt;WAIT_JOINTS</title>
<path fill="none" stroke="black" d="M114.63,-101.88C113.4,-88.61 112.87,-69.86 116.9,-54 117.66,-51.01 118.73,-48.01 119.98,-45.08"/>
<polygon fill="black" stroke="black" points="123.12,-46.61 124.42,-36.1 116.85,-43.51 123.12,-46.61"/>
</g>
<!-- START&#45;&gt;START_JOINTS -->
<g id="edge2" class="edge">
<title>START&#45;&gt;START_JOINTS</title>
<path fill="none" stroke="black" d="M101.95,-204.04C104.7,-188.74 108.8,-165.97 112.01,-148.14"/>
<polygon fill="black" stroke="black" points="115.5,-148.51 113.83,-138.05 108.61,-147.27 115.5,-148.51"/>
</g>
<!-- WAIT_JOINTS&#45;&gt;IDLE -->
<g id="edge6" class="edge">
<title>WAIT_JOINTS&#45;&gt;IDLE</title>
<path fill="none" stroke="black" d="M204.86,-24.45C246.13,-29.3 293,-38.18 305.9,-54 358.76,-118.85 320.31,-168.48 276.9,-240 263.84,-261.5 241.31,-278.83 222.45,-290.61"/>
<polygon fill="black" stroke="black" points="220.6,-287.64 213.82,-295.78 224.2,-293.64 220.6,-287.64"/>
<text text-anchor="middle" x="392.4" y="-174.8" font-family="Times,serif" font-size="14.00">a joint had an error</text>
<text text-anchor="middle" x="392.4" y="-159.8" font-family="Times,serif" font-size="14.00">on its way home</text>
</g>
<!-- WAIT_JOINTS&#45;&gt;START_JOINTS -->
<g id="edge4" class="edge">
<title>WAIT_JOINTS&#45;&gt;START_JOINTS</title>
<path fill="none" stroke="black" d="M132.63,-36.22C129.75,-51.36 125.51,-73.66 122.16,-91.3"/>
<polygon fill="black" stroke="black" points="118.63,-91.1 120.21,-101.58 125.51,-92.41 118.63,-91.1"/>
<text text-anchor="middle" x="215.9" y="-72.8" font-family="Times,serif" font-size="14.00">all joints in this</text>
<text text-anchor="middle" x="215.9" y="-57.8" font-family="Times,serif" font-size="14.00">sequence reached home</text>
</g>
<!-- WAIT_JOINTS&#45;&gt;WAIT_JOINTS -->
<g id="edge7" class="edge">
<title>WAIT_JOINTS&#45;&gt;WAIT_JOINTS</title>
<path fill="none" stroke="black" d="M199.15,-27.26C215.25,-26.65 227.34,-23.57 227.34,-18 227.34,-13.69 220.11,-10.87 209.38,-9.53"/>
<polygon fill="black" stroke="black" points="209.39,-6.02 199.15,-8.74 208.85,-13 209.39,-6.02"/>
</g>
</g>
</svg>
