<?xml version="1.0" encoding="UTF-8" standalone="no"?>
<!DOCTYPE svg PUBLIC "-//W3C//DTD SVG 1.1//EN"
 "http://www.w3.org/Graphics/SVG/1.1/DTD/svg11.dtd">
<!-- Generated by graphviz version 2.40.1 (20161225.0304)
 -->
<!-- Title: homing Pages: 1 -->
<svg width="865pt" height="1448pt"
 viewBox="0.00 0.00 865.24 1448.00" xmlns="http://www.w3.org/2000/svg" xmlns:xlink="http://www.w3.org/1999/xlink">
<g id="graph0" class="graph" transform="scale(1 1) rotate(0) translate(4 1444)">
<title>homing</title>
<polygon fill="#ffffff" stroke="transparent" points="-4,4 -4,-1444 861.2428,-1444 861.2428,4 -4,4"/>
<!-- HOME_IDLE -->
<g id="node1" class="node">
<title>HOME_IDLE</title>
<ellipse fill="none" stroke="#000000" cx="167.2428" cy="-1422" rx="61.99" ry="18"/>
<text text-anchor="middle" x="167.2428" y="-1418.3" font-family="Times,serif" font-size="14.00" fill="#000000">HOME_IDLE</text>
</g>
<!-- HOME_START -->
<g id="node2" class="node">
<title>HOME_START</title>
<ellipse fill="none" stroke="#000000" cx="194.2428" cy="-1320" rx="69.5877" ry="18"/>
<text text-anchor="middle" x="194.2428" y="-1316.3" font-family="Times,serif" font-size="14.00" fill="#000000">HOME_START</text>
</g>
<!-- HOME_IDLE&#45;&gt;HOME_START -->
<g id="edge1" class="edge">
<title>HOME_IDLE&#45;&gt;HOME_START</title>
<path fill="none" stroke="#000000" d="M118.9234,-1410.56C106.5145,-1405.2022 94.6028,-1397.3828 87.2428,-1386 80.0032,-1374.8033 79.4618,-1366.8275 87.2428,-1356 93.1158,-1347.8275 111.4958,-1340.4186 131.4031,-1334.4757"/>
<polygon fill="#000000" stroke="#000000" points="132.587,-1337.778 141.2504,-1331.6792 130.6746,-1331.0443 132.587,-1337.778"/>
<text text-anchor="middle" x="156.7428" y="-1367.3" font-family="Times,serif" font-size="14.00" fill="#000000">on EMCMOT_HOME(j)</text>
</g>
<!-- HOME_START&#45;&gt;HOME_IDLE -->
<g id="edge2" class="edge">
<title>HOME_START&#45;&gt;HOME_IDLE</title>
<path fill="none" stroke="#000000" d="M214.1199,-1337.276C219.0291,-1342.7182 223.6276,-1349.1216 226.2428,-1356 230.9812,-1368.463 232.7689,-1374.373 226.2428,-1386 222.8492,-1392.0461 217.9819,-1397.1968 212.4789,-1401.5484"/>
<polygon fill="#000000" stroke="#000000" points="210.2986,-1398.8006 204.0592,-1407.3634 214.2766,-1404.5604 210.2986,-1398.8006"/>
<text text-anchor="middle" x="267.2428" y="-1374.8" font-family="Times,serif" font-size="14.00" fill="#000000">shared home</text>
<text text-anchor="middle" x="267.2428" y="-1359.8" font-family="Times,serif" font-size="14.00" fill="#000000">switch closed</text>
</g>
<!-- HOME_SET_SWITCH_POSITION -->
<g id="node3" class="node">
<title>HOME_SET_SWITCH_POSITION</title>
<ellipse fill="none" stroke="#000000" cx="216.2428" cy="-483" rx="139.9756" ry="18"/>
<text text-anchor="middle" x="216.2428" y="-479.3" font-family="Times,serif" font-size="14.00" fill="#000000">HOME_SET_SWITCH_POSITION</text>
</g>
<!-- HOME_START&#45;&gt;HOME_SET_SWITCH_POSITION -->
<g id="edge3" class="edge">
<title>HOME_START&#45;&gt;HOME_SET_SWITCH_POSITION</title>
<path fill="none" stroke="#000000" d="M159.207,-1304.4286C128.0013,-1287.8999 87.2428,-1258.5499 87.2428,-1218 87.2428,-1218 87.2428,-1218 87.2428,-600 87.2428,-555.9605 129.0035,-524.1592 165.0038,-504.9266"/>
<polygon fill="#000000" stroke="#000000" points="166.7047,-507.9878 174.0034,-500.308 163.5085,-501.7601 166.7047,-507.9878"/>
<text text-anchor="middle" x="147.7428" y="-900.8" font-family="Times,serif" font-size="14.00" fill="#000000">no switch for this axis</text>
<text text-anchor="middle" x="147.7428" y="-885.8" font-family="Times,serif" font-size="14.00" fill="#000000">immediate</text>
</g>
<!-- HOME_INITIAL_SEARCH_START -->
<g id="node4" class="node">
<title>HOME_INITIAL_SEARCH_START</title>
<ellipse fill="none" stroke="#000000" cx="320.2428" cy="-1218" rx="144.8743" ry="18"/>
<text text-anchor="middle" x="320.2428" y="-1214.3" font-family="Times,serif" font-size="14.00" fill="#000000">HOME_INITIAL_SEARCH_START</text>
</g>
<!-- HOME_START&#45;&gt;HOME_INITIAL_SEARCH_START -->
<g id="edge4" class="edge">
<title>HOME_START&#45;&gt;HOME_INITIAL_SEARCH_START</title>
<path fill="none" stroke="#000000" d="M215.617,-1302.6971C236.0025,-1286.1945 266.9129,-1261.1718 289.8559,-1242.5989"/>
<polygon fill="#000000" stroke="#000000" points="292.3435,-1245.0882 297.9138,-1236.0758 287.9391,-1239.6475 292.3435,-1245.0882"/>
<text text-anchor="middle" x="300.7428" y="-1272.8" font-family="Times,serif" font-size="14.00" fill="#000000">otherwise</text>
<text text-anchor="middle" x="300.7428" y="-1257.8" font-family="Times,serif" font-size="14.00" fill="#000000">immediate</text>
</g>
<!-- HOME_FINAL_MOVE_START -->
<g id="node18" class="node">
<title>HOME_FINAL_MOVE_START</title>
<ellipse fill="none" stroke="#000000" cx="257.2428" cy="-207" rx="129.9769" ry="18"/>
<text text-anchor="middle" x="257.2428" y="-203.3" font-family="Times,serif" font-size="14.00" fill="#000000">HOME_FINAL_MOVE_START</text>
</g>
<!-- HOME_SET_SWITCH_POSITION&#45;&gt;HOME_FINAL_MOVE_START -->
<g id="edge22" class="edge">
<title>HOME_SET_SWITCH_POSITION&#45;&gt;HOME_FINAL_MOVE_START</title>
<path fill="none" stroke="#000000" d="M218.9329,-464.8909C225.9121,-417.9093 244.6393,-291.8431 253.0509,-235.2189"/>
<polygon fill="#000000" stroke="#000000" points="256.5353,-235.5816 254.5428,-225.1758 249.6113,-234.553 256.5353,-235.5816"/>
<text text-anchor="middle" x="267.7428" y="-341.3" font-family="Times,serif" font-size="14.00" fill="#000000">immediate</text>
</g>
<!-- HOME_INITIAL_BACKOFF_START -->
<g id="node5" class="node">
<title>HOME_INITIAL_BACKOFF_START</title>
<ellipse fill="none" stroke="#000000" cx="380.2428" cy="-1101" rx="150.5735" ry="18"/>
<text text-anchor="middle" x="380.2428" y="-1097.3" font-family="Times,serif" font-size="14.00" fill="#000000">HOME_INITIAL_BACKOFF_START</text>
</g>
<!-- HOME_INITIAL_SEARCH_START&#45;&gt;HOME_INITIAL_BACKOFF_START -->
<g id="edge7" class="edge">
<title>HOME_INITIAL_SEARCH_START&#45;&gt;HOME_INITIAL_BACKOFF_START</title>
<path fill="none" stroke="#000000" d="M329.4863,-1199.9752C339.2793,-1180.8787 354.8603,-1150.4958 366.1781,-1128.4262"/>
<polygon fill="#000000" stroke="#000000" points="369.4411,-1129.7334 370.8899,-1119.2381 363.2123,-1126.5391 369.4411,-1129.7334"/>
<text text-anchor="middle" x="421.2428" y="-1170.8" font-family="Times,serif" font-size="14.00" fill="#000000">after HOME_DELAY</text>
<text text-anchor="middle" x="421.2428" y="-1155.8" font-family="Times,serif" font-size="14.00" fill="#000000">if home switch closed</text>
<text text-anchor="middle" x="421.2428" y="-1140.8" font-family="Times,serif" font-size="14.00" fill="#000000">immediate</text>
</g>
<!-- HOME_INITIAL_SEARCH_WAIT -->
<g id="node7" class="node">
<title>HOME_INITIAL_SEARCH_WAIT</title>
<ellipse fill="none" stroke="#000000" cx="689.2428" cy="-1101" rx="140.2752" ry="18"/>
<text text-anchor="middle" x="689.2428" y="-1097.3" font-family="Times,serif" font-size="14.00" fill="#000000">HOME_INITIAL_SEARCH_WAIT</text>
</g>
<!-- HOME_INITIAL_SEARCH_START&#45;&gt;HOME_INITIAL_SEARCH_WAIT -->
<g id="edge8" class="edge">
<title>HOME_INITIAL_SEARCH_START&#45;&gt;HOME_INITIAL_SEARCH_WAIT</title>
<path fill="none" stroke="#000000" d="M401.9925,-1203.0871C429.057,-1197.4054 459.1692,-1190.2743 486.2428,-1182 540.6665,-1165.3668 600.9951,-1140.4221 641.6309,-1122.6133"/>
<polygon fill="#000000" stroke="#000000" points="643.2742,-1125.7138 651.0111,-1118.4756 640.4491,-1119.3092 643.2742,-1125.7138"/>
<text text-anchor="middle" x="668.2428" y="-1170.8" font-family="Times,serif" font-size="14.00" fill="#000000">after HOME_DELAY</text>
<text text-anchor="middle" x="668.2428" y="-1155.8" font-family="Times,serif" font-size="14.00" fill="#000000">if home switch open</text>
<text text-anchor="middle" x="668.2428" y="-1140.8" font-family="Times,serif" font-size="14.00" fill="#000000">immediate</text>
</g>
<!-- HOME_INITIAL_BACKOFF_WAIT -->
<g id="node6" class="node">
<title>HOME_INITIAL_BACKOFF_WAIT</title>
<ellipse fill="none" stroke="#000000" cx="301.2428" cy="-999" rx="146.4744" ry="18"/>
<text text-anchor="middle" x="301.2428" y="-995.3" font-family="Times,serif" font-size="14.00" fill="#000000">HOME_INITIAL_BACKOFF_WAIT</text>
</g>
<!-- HOME_INITIAL_BACKOFF_START&#45;&gt;HOME_INITIAL_BACKOFF_WAIT -->
<g id="edge5" class="edge">
<title>HOME_INITIAL_BACKOFF_START&#45;&gt;HOME_INITIAL_BACKOFF_WAIT</title>
<path fill="none" stroke="#000000" d="M366.1192,-1082.7644C353.7618,-1066.8093 335.6581,-1043.4349 321.7126,-1025.4294"/>
<polygon fill="#000000" stroke="#000000" points="324.1346,-1022.8406 315.2441,-1017.0777 318.6003,-1027.1269 324.1346,-1022.8406"/>
<text text-anchor="middle" x="410.2428" y="-1046.3" font-family="Times,serif" font-size="14.00" fill="#000000">after HOME_DELAY</text>
</g>
<!-- HOME_INITIAL_BACKOFF_WAIT&#45;&gt;HOME_INITIAL_SEARCH_START -->
<g id="edge6" class="edge">
<title>HOME_INITIAL_BACKOFF_WAIT&#45;&gt;HOME_INITIAL_SEARCH_START</title>
<path fill="none" stroke="#000000" d="M242.7413,-1015.5887C186.3854,-1034.8292 113.5794,-1070.2595 142.2428,-1119 165.2949,-1158.1988 210.1058,-1182.9977 248.9972,-1197.9723"/>
<polygon fill="#000000" stroke="#000000" points="248.1471,-1201.3894 258.7404,-1201.5706 250.5722,-1194.8229 248.1471,-1201.3894"/>
<text text-anchor="middle" x="181.2428" y="-1097.3" font-family="Times,serif" font-size="14.00" fill="#000000">home_sw_fall</text>
</g>
<!-- HOME_SET_COARSE_POSITION -->
<g id="node8" class="node">
<title>HOME_SET_COARSE_POSITION</title>
<ellipse fill="none" stroke="#000000" cx="645.2428" cy="-999" rx="140.2752" ry="18"/>
<text text-anchor="middle" x="645.2428" y="-995.3" font-family="Times,serif" font-size="14.00" fill="#000000">HOME_SET_COARSE_POSITION</text>
</g>
<!-- HOME_INITIAL_SEARCH_WAIT&#45;&gt;HOME_SET_COARSE_POSITION -->
<g id="edge9" class="edge">
<title>HOME_INITIAL_SEARCH_WAIT&#45;&gt;HOME_SET_COARSE_POSITION</title>
<path fill="none" stroke="#000000" d="M681.3765,-1082.7644C674.619,-1067.0994 664.7764,-1044.2824 657.0696,-1026.4168"/>
<polygon fill="#000000" stroke="#000000" points="660.2157,-1024.8735 653.041,-1017.0777 653.7882,-1027.6461 660.2157,-1024.8735"/>
<text text-anchor="middle" x="711.7428" y="-1053.8" font-family="Times,serif" font-size="14.00" fill="#000000">home_sw_rise</text>
<text text-anchor="middle" x="711.7428" y="-1038.8" font-family="Times,serif" font-size="14.00" fill="#000000">immediate</text>
</g>
<!-- HOME_FINAL_BACKOFF_START -->
<g id="node9" class="node">
<title>HOME_FINAL_BACKOFF_START</title>
<ellipse fill="none" stroke="#000000" cx="645.2428" cy="-897" rx="144.0747" ry="18"/>
<text text-anchor="middle" x="645.2428" y="-893.3" font-family="Times,serif" font-size="14.00" fill="#000000">HOME_FINAL_BACKOFF_START</text>
</g>
<!-- HOME_SET_COARSE_POSITION&#45;&gt;HOME_FINAL_BACKOFF_START -->
<g id="edge10" class="edge">
<title>HOME_SET_COARSE_POSITION&#45;&gt;HOME_FINAL_BACKOFF_START</title>
<path fill="none" stroke="#000000" d="M645.2428,-980.7644C645.2428,-965.317 645.2428,-942.9149 645.2428,-925.164"/>
<polygon fill="#000000" stroke="#000000" points="648.7429,-925.0776 645.2428,-915.0777 641.7429,-925.0777 648.7429,-925.0776"/>
<text text-anchor="middle" x="741.7428" y="-951.8" font-family="Times,serif" font-size="14.00" fill="#000000">search and latch are same direction</text>
<text text-anchor="middle" x="741.7428" y="-936.8" font-family="Times,serif" font-size="14.00" fill="#000000">immediate</text>
</g>
<!-- HOME_FALL_SEARCH_START -->
<g id="node10" class="node">
<title>HOME_FALL_SEARCH_START</title>
<ellipse fill="none" stroke="#000000" cx="395.2428" cy="-843" rx="134.5761" ry="18"/>
<text text-anchor="middle" x="395.2428" y="-839.3" font-family="Times,serif" font-size="14.00" fill="#000000">HOME_FALL_SEARCH_START</text>
</g>
<!-- HOME_SET_COARSE_POSITION&#45;&gt;HOME_FALL_SEARCH_START -->
<g id="edge11" class="edge">
<title>HOME_SET_COARSE_POSITION&#45;&gt;HOME_FALL_SEARCH_START</title>
<path fill="none" stroke="#000000" d="M524.6153,-989.783C484.3718,-984.4143 446.0031,-976.0244 431.2428,-963 405.1826,-940.0047 397.6292,-898.9641 395.6326,-871.364"/>
<polygon fill="#000000" stroke="#000000" points="399.1165,-870.9613 395.101,-861.157 392.126,-871.3255 399.1165,-870.9613"/>
<text text-anchor="middle" x="536.2428" y="-951.8" font-family="Times,serif" font-size="14.00" fill="#000000">search and latch are opposite direction</text>
<text text-anchor="middle" x="536.2428" y="-936.8" font-family="Times,serif" font-size="14.00" fill="#000000">immediate</text>
</g>
<!-- HOME_FINAL_BACKOFF_WAIT -->
<g id="node11" class="node">
<title>HOME_FINAL_BACKOFF_WAIT</title>
<ellipse fill="none" stroke="#000000" cx="645.2428" cy="-789" rx="139.9756" ry="18"/>
<text text-anchor="middle" x="645.2428" y="-785.3" font-family="Times,serif" font-size="14.00" fill="#000000">HOME_FINAL_BACKOFF_WAIT</text>
</g>
<!-- HOME_FINAL_BACKOFF_START&#45;&gt;HOME_FINAL_BACKOFF_WAIT -->
<g id="edge12" class="edge">
<title>HOME_FINAL_BACKOFF_START&#45;&gt;HOME_FINAL_BACKOFF_WAIT</title>
<path fill="none" stroke="#000000" d="M645.2428,-878.6793C645.2428,-861.821 645.2428,-836.5651 645.2428,-817.147"/>
<polygon fill="#000000" stroke="#000000" points="648.7429,-817.0501 645.2428,-807.0502 641.7429,-817.0502 648.7429,-817.0501"/>
<text text-anchor="middle" x="706.2428" y="-839.3" font-family="Times,serif" font-size="14.00" fill="#000000">after HOME_DELAY</text>
</g>
<!-- HOME_FALL_SEARCH_WAIT -->
<g id="node15" class="node">
<title>HOME_FALL_SEARCH_WAIT</title>
<ellipse fill="none" stroke="#000000" cx="366.2428" cy="-600" rx="129.9769" ry="18"/>
<text text-anchor="middle" x="366.2428" y="-596.3" font-family="Times,serif" font-size="14.00" fill="#000000">HOME_FALL_SEARCH_WAIT</text>
</g>
<!-- HOME_FALL_SEARCH_START&#45;&gt;HOME_FALL_SEARCH_WAIT -->
<g id="edge17" class="edge">
<title>HOME_FALL_SEARCH_START&#45;&gt;HOME_FALL_SEARCH_WAIT</title>
<path fill="none" stroke="#000000" d="M393.0631,-824.7355C388.0438,-782.6778 375.6406,-678.7475 369.6241,-628.3326"/>
<polygon fill="#000000" stroke="#000000" points="373.0687,-627.6597 368.4082,-618.145 366.118,-628.4893 373.0687,-627.6597"/>
<text text-anchor="middle" x="445.2428" y="-734.3" font-family="Times,serif" font-size="14.00" fill="#000000">after HOME_DELAY</text>
</g>
<!-- HOME_RISE_SEARCH_START -->
<g id="node12" class="node">
<title>HOME_RISE_SEARCH_START</title>
<ellipse fill="none" stroke="#000000" cx="645.2428" cy="-687" rx="131.8766" ry="18"/>
<text text-anchor="middle" x="645.2428" y="-683.3" font-family="Times,serif" font-size="14.00" fill="#000000">HOME_RISE_SEARCH_START</text>
</g>
<!-- HOME_FINAL_BACKOFF_WAIT&#45;&gt;HOME_RISE_SEARCH_START -->
<g id="edge13" class="edge">
<title>HOME_FINAL_BACKOFF_WAIT&#45;&gt;HOME_RISE_SEARCH_START</title>
<path fill="none" stroke="#000000" d="M645.2428,-770.7644C645.2428,-755.317 645.2428,-732.9149 645.2428,-715.164"/>
<polygon fill="#000000" stroke="#000000" points="648.7429,-715.0776 645.2428,-705.0777 641.7429,-715.0777 648.7429,-715.0776"/>
<text text-anchor="middle" x="684.2428" y="-741.8" font-family="Times,serif" font-size="14.00" fill="#000000">home_sw_fall</text>
<text text-anchor="middle" x="684.2428" y="-726.8" font-family="Times,serif" font-size="14.00" fill="#000000">immediate</text>
</g>
<!-- HOME_RISE_SEARCH_WAIT -->
<g id="node13" class="node">
<title>HOME_RISE_SEARCH_WAIT</title>
<ellipse fill="none" stroke="#000000" cx="645.2428" cy="-600" rx="127.2775" ry="18"/>
<text text-anchor="middle" x="645.2428" y="-596.3" font-family="Times,serif" font-size="14.00" fill="#000000">HOME_RISE_SEARCH_WAIT</text>
</g>
<!-- HOME_RISE_SEARCH_START&#45;&gt;HOME_RISE_SEARCH_WAIT -->
<g id="edge14" class="edge">
<title>HOME_RISE_SEARCH_START&#45;&gt;HOME_RISE_SEARCH_WAIT</title>
<path fill="none" stroke="#000000" d="M645.2428,-668.9735C645.2428,-657.1918 645.2428,-641.5607 645.2428,-628.1581"/>
<polygon fill="#000000" stroke="#000000" points="648.7429,-628.0033 645.2428,-618.0034 641.7429,-628.0034 648.7429,-628.0033"/>
<text text-anchor="middle" x="706.2428" y="-639.8" font-family="Times,serif" font-size="14.00" fill="#000000">after HOME_DELAY</text>
</g>
<!-- HOME_RISE_SEARCH_WAIT&#45;&gt;HOME_SET_SWITCH_POSITION -->
<g id="edge16" class="edge">
<title>HOME_RISE_SEARCH_WAIT&#45;&gt;HOME_SET_SWITCH_POSITION</title>
<path fill="none" stroke="#000000" d="M567.1852,-585.6823C541.8602,-579.7428 517.8133,-572.295 508.2428,-564 491.8375,-549.7812 506.5098,-532.159 489.2428,-519 487.5314,-517.6957 401.327,-506.4632 326.2479,-496.8872"/>
<polygon fill="#000000" stroke="#000000" points="326.5733,-493.4004 316.2111,-495.6084 325.6886,-500.3443 326.5733,-493.4004"/>
<text text-anchor="middle" x="571.7428" y="-552.8" font-family="Times,serif" font-size="14.00" fill="#000000">home_sw_rise</text>
<text text-anchor="middle" x="571.7428" y="-537.8" font-family="Times,serif" font-size="14.00" fill="#000000">!HOME_USE_INDEX</text>
<text text-anchor="middle" x="571.7428" y="-522.8" font-family="Times,serif" font-size="14.00" fill="#000000">immediate</text>
</g>
<!-- HOME_INDEX_SEARCH_START -->
<g id="node14" class="node">
<title>HOME_INDEX_SEARCH_START</title>
<ellipse fill="none" stroke="#000000" cx="513.2428" cy="-483" rx="139.9756" ry="18"/>
<text text-anchor="middle" x="513.2428" y="-479.3" font-family="Times,serif" font-size="14.00" fill="#000000">HOME_INDEX_SEARCH_START</text>
</g>
<!-- HOME_RISE_SEARCH_WAIT&#45;&gt;HOME_INDEX_SEARCH_START -->
<g id="edge15" class="edge">
<title>HOME_RISE_SEARCH_WAIT&#45;&gt;HOME_INDEX_SEARCH_START</title>
<path fill="none" stroke="#000000" d="M649.3531,-581.7529C652.2688,-563.7638 653.4858,-536.4976 639.2428,-519 633.517,-511.9659 619.1349,-505.8211 602.044,-500.6942"/>
<polygon fill="#000000" stroke="#000000" points="602.8827,-497.2943 592.3083,-497.9514 600.9845,-504.032 602.8827,-497.2943"/>
<text text-anchor="middle" x="711.2428" y="-552.8" font-family="Times,serif" font-size="14.00" fill="#000000">home_sw_rise</text>
<text text-anchor="middle" x="711.2428" y="-537.8" font-family="Times,serif" font-size="14.00" fill="#000000">HOME_USE_INDEX</text>
<text text-anchor="middle" x="711.2428" y="-522.8" font-family="Times,serif" font-size="14.00" fill="#000000">immediate</text>
</g>
<!-- HOME_INDEX_SEARCH_WAIT -->
<g id="node16" class="node">
<title>HOME_INDEX_SEARCH_WAIT</title>
<ellipse fill="none" stroke="#000000" cx="464.2428" cy="-396" rx="135.6761" ry="18"/>
<text text-anchor="middle" x="464.2428" y="-392.3" font-family="Times,serif" font-size="14.00" fill="#000000">HOME_INDEX_SEARCH_WAIT</text>
</g>
<!-- HOME_INDEX_SEARCH_START&#45;&gt;HOME_INDEX_SEARCH_WAIT -->
<g id="edge20" class="edge">
<title>HOME_INDEX_SEARCH_START&#45;&gt;HOME_INDEX_SEARCH_WAIT</title>
<path fill="none" stroke="#000000" d="M503.09,-464.9735C496.2572,-452.8418 487.1256,-436.6287 479.4327,-422.9698"/>
<polygon fill="#000000" stroke="#000000" points="482.3396,-420.9989 474.3826,-414.0034 476.2405,-424.4341 482.3396,-420.9989"/>
<text text-anchor="middle" x="520.7428" y="-435.8" font-family="Times,serif" font-size="14.00" fill="#000000">immediate</text>
</g>
<!-- HOME_FALL_SEARCH_WAIT&#45;&gt;HOME_SET_SWITCH_POSITION -->
<g id="edge19" class="edge">
<title>HOME_FALL_SEARCH_WAIT&#45;&gt;HOME_SET_SWITCH_POSITION</title>
<path fill="none" stroke="#000000" d="M280.3155,-586.3764C255.7028,-580.7306 233.3245,-573.2941 225.2428,-564 212.8643,-549.7646 210.9383,-528.3862 211.9349,-511.1664"/>
<polygon fill="#000000" stroke="#000000" points="215.4316,-511.3626 212.8658,-501.0832 208.4612,-510.7191 215.4316,-511.3626"/>
<text text-anchor="middle" x="288.7428" y="-552.8" font-family="Times,serif" font-size="14.00" fill="#000000">home_sw_fall</text>
<text text-anchor="middle" x="288.7428" y="-537.8" font-family="Times,serif" font-size="14.00" fill="#000000">!HOME_USE_INDEX</text>
<text text-anchor="middle" x="288.7428" y="-522.8" font-family="Times,serif" font-size="14.00" fill="#000000">immediate</text>
</g>
<!-- HOME_FALL_SEARCH_WAIT&#45;&gt;HOME_INDEX_SEARCH_START -->
<g id="edge18" class="edge">
<title>HOME_FALL_SEARCH_WAIT&#45;&gt;HOME_INDEX_SEARCH_START</title>
<path fill="none" stroke="#000000" d="M360.6591,-581.8077C356.363,-563.8613 353.2573,-536.6276 367.2428,-519 373.7913,-510.7461 390.7248,-504.1182 410.8435,-498.9115"/>
<polygon fill="#000000" stroke="#000000" points="411.7189,-502.3008 420.6132,-496.5439 410.0701,-495.4977 411.7189,-502.3008"/>
<text text-anchor="middle" x="428.2428" y="-552.8" font-family="Times,serif" font-size="14.00" fill="#000000">home_sw_fall</text>
<text text-anchor="middle" x="428.2428" y="-537.8" font-family="Times,serif" font-size="14.00" fill="#000000">HOME_USE_INDEX</text>
<text text-anchor="middle" x="428.2428" y="-522.8" font-family="Times,serif" font-size="14.00" fill="#000000">immediate</text>
</g>
<!-- HOME_SET_INDEX_POSITION -->
<g id="node17" class="node">
<title>HOME_SET_INDEX_POSITION</title>
<ellipse fill="none" stroke="#000000" cx="394.2428" cy="-294" rx="133.4768" ry="18"/>
<text text-anchor="middle" x="394.2428" y="-290.3" font-family="Times,serif" font-size="14.00" fill="#000000">HOME_SET_INDEX_POSITION</text>
</g>
<!-- HOME_INDEX_SEARCH_WAIT&#45;&gt;HOME_SET_INDEX_POSITION -->
<g id="edge21" class="edge">
<title>HOME_INDEX_SEARCH_WAIT&#45;&gt;HOME_SET_INDEX_POSITION</title>
<path fill="none" stroke="#000000" d="M451.7282,-377.7644C440.7786,-361.8093 424.7373,-338.4349 412.3806,-320.4294"/>
<polygon fill="#000000" stroke="#000000" points="415.1933,-318.3424 406.649,-312.0777 409.4217,-322.3033 415.1933,-318.3424"/>
<text text-anchor="middle" x="466.7428" y="-348.8" font-family="Times,serif" font-size="14.00" fill="#000000">index seen</text>
<text text-anchor="middle" x="466.7428" y="-333.8" font-family="Times,serif" font-size="14.00" fill="#000000">immediate</text>
</g>
<!-- HOME_SET_INDEX_POSITION&#45;&gt;HOME_FINAL_MOVE_START -->
<g id="edge23" class="edge">
<title>HOME_SET_INDEX_POSITION&#45;&gt;HOME_FINAL_MOVE_START</title>
<path fill="none" stroke="#000000" d="M366.1882,-276.1843C345.3171,-262.9304 316.6414,-244.7203 293.9484,-230.3094"/>
<polygon fill="#000000" stroke="#000000" points="295.5779,-227.1981 285.2599,-224.7919 291.8253,-233.1073 295.5779,-227.1981"/>
<text text-anchor="middle" x="362.7428" y="-246.8" font-family="Times,serif" font-size="14.00" fill="#000000">immediate</text>
</g>
<!-- HOME_FINAL_MOVE_WAIT -->
<g id="node19" class="node">
<title>HOME_FINAL_MOVE_WAIT</title>
<ellipse fill="none" stroke="#000000" cx="257.2428" cy="-120" rx="126.1777" ry="18"/>
<text text-anchor="middle" x="257.2428" y="-116.3" font-family="Times,serif" font-size="14.00" fill="#000000">HOME_FINAL_MOVE_WAIT</text>
</g>
<!-- HOME_FINAL_MOVE_START&#45;&gt;HOME_FINAL_MOVE_WAIT -->
<g id="edge24" class="edge">
<title>HOME_FINAL_MOVE_START&#45;&gt;HOME_FINAL_MOVE_WAIT</title>
<path fill="none" stroke="#000000" d="M257.2428,-188.9735C257.2428,-177.1918 257.2428,-161.5607 257.2428,-148.1581"/>
<polygon fill="#000000" stroke="#000000" points="260.7429,-148.0033 257.2428,-138.0034 253.7429,-148.0034 260.7429,-148.0033"/>
<text text-anchor="middle" x="318.2428" y="-159.8" font-family="Times,serif" font-size="14.00" fill="#000000">after HOME_DELAY</text>
</g>
<!-- HOME_ABORT -->
<g id="node20" class="node">
<title>HOME_ABORT</title>
<ellipse fill="none" stroke="#000000" cx="624.2428" cy="-18" rx="71.4873" ry="18"/>
<text text-anchor="middle" x="624.2428" y="-14.3" font-family="Times,serif" font-size="14.00" fill="#000000">HOME_ABORT</text>
</g>
<!-- HOME_FINAL_MOVE_WAIT&#45;&gt;HOME_ABORT -->
<g id="edge25" class="edge">
<title>HOME_FINAL_MOVE_WAIT&#45;&gt;HOME_ABORT</title>
<path fill="none" stroke="#000000" d="M314.9903,-103.9503C383.6763,-84.8605 497.6544,-53.1826 566.3877,-34.0796"/>
<polygon fill="#000000" stroke="#000000" points="567.492,-37.4054 576.1896,-31.3554 565.6175,-30.6611 567.492,-37.4054"/>
<text text-anchor="middle" x="506.2428" y="-65.3" font-family="Times,serif" font-size="14.00" fill="#000000">on limit</text>
</g>
<!-- HOME_FINISHED -->
<g id="node21" class="node">
<title>HOME_FINISHED</title>
<ellipse fill="none" stroke="#000000" cx="81.2428" cy="-18" rx="81.4863" ry="18"/>
<text text-anchor="middle" x="81.2428" y="-14.3" font-family="Times,serif" font-size="14.00" fill="#000000">HOME_FINISHED</text>
</g>
<!-- HOME_FINAL_MOVE_WAIT&#45;&gt;HOME_FINISHED -->
<g id="edge26" class="edge">
<title>HOME_FINAL_MOVE_WAIT&#45;&gt;HOME_FINISHED</title>
<path fill="none" stroke="#000000" d="M190.2582,-104.7271C174.4846,-99.5181 158.2113,-92.729 144.2428,-84 127.4449,-73.5028 112.0257,-57.5132 100.6463,-43.9015"/>
<polygon fill="#000000" stroke="#000000" points="103.1126,-41.3847 94.1068,-35.8039 97.6667,-45.7828 103.1126,-41.3847"/>
<text text-anchor="middle" x="206.2428" y="-65.3" font-family="Times,serif" font-size="14.00" fill="#000000">reached home position</text>
</g>
<!-- HOME_ABORT&#45;&gt;HOME_IDLE -->
<g id="edge29" class="edge">
<title>HOME_ABORT&#45;&gt;HOME_IDLE</title>
<path fill="none" stroke="#000000" d="M677.4056,-30.0535C746.1733,-47.2157 857.2428,-80.9757 857.2428,-120 857.2428,-1320 857.2428,-1320 857.2428,-1320 857.2428,-1382.0356 415.1339,-1410.1123 238.6978,-1418.8471"/>
<polygon fill="#000000" stroke="#000000" points="238.2931,-1415.3626 228.4757,-1419.3462 238.6345,-1422.3543 238.2931,-1415.3626"/>
</g>
<!-- HOME_FINISHED&#45;&gt;HOME_IDLE -->
<g id="edge27" class="edge">
<title>HOME_FINISHED&#45;&gt;HOME_IDLE</title>
<path fill="none" stroke="#000000" d="M69.4578,-35.9652C57.6588,-55.7178 41.2428,-88.805 41.2428,-120 41.2428,-1320 41.2428,-1320 41.2428,-1320 41.2428,-1353.6283 53.0077,-1363.7727 78.2428,-1386 87.816,-1394.4321 99.6204,-1401.0402 111.4662,-1406.1612"/>
<polygon fill="#000000" stroke="#000000" points="110.3489,-1409.484 120.9332,-1409.9557 112.9532,-1402.9865 110.3489,-1409.484"/>
</g>
<!-- any -->
<g id="node22" class="node">
<title>any</title>
<ellipse fill="none" stroke="#000000" cx="624.2428" cy="-120" rx="27" ry="18"/>
<text text-anchor="middle" x="624.2428" y="-116.3" font-family="Times,serif" font-size="14.00" fill="#000000">any</text>
</g>
<!-- any&#45;&gt;HOME_ABORT -->
<g id="edge28" class="edge">
<title>any&#45;&gt;HOME_ABORT</title>
<path fill="none" stroke="#000000" d="M624.2428,-101.7644C624.2428,-86.317 624.2428,-63.9149 624.2428,-46.164"/>
<polygon fill="#000000" stroke="#000000" points="627.7429,-46.0776 624.2428,-36.0777 620.7429,-46.0777 627.7429,-46.0776"/>
<text text-anchor="middle" x="659.2428" y="-72.8" font-family="Times,serif" font-size="14.00" fill="#000000">hit limit</text>
<text text-anchor="middle" x="659.2428" y="-57.8" font-family="Times,serif" font-size="14.00" fill="#000000">end of move</text>
</g>
</g>
</svg>
