<?xml version="1.0" encoding="UTF-8" standalone="no"?>
<!DOCTYPE svg PUBLIC "-//W3C//DTD SVG 1.1//EN"
 "http://www.w3.org/Graphics/SVG/1.1/DTD/svg11.dtd">
<!-- Generated by graphviz version 2.40.1 (20161225.0304)
 -->
<!-- Title: net Pages: 1 -->
<svg width="384pt" height="335pt"
 viewBox="0.00 0.00 383.68 335.00" xmlns="http://www.w3.org/2000/svg" xmlns:xlink="http://www.w3.org/1999/xlink">
<g id="graph0" class="graph" transform="scale(1 1) rotate(0) translate(4 331)">
<title>net</title>
<polygon fill="#ffffff" stroke="transparent" points="-4,4 -4,-331 379.6756,-331 379.6756,4 -4,4"/>
<!-- IDLE -->
<g id="node1" class="node">
<title>IDLE</title>
<ellipse fill="none" stroke="#000000" cx="163.6756" cy="-309" rx="30.5947" ry="18"/>
<text text-anchor="middle" x="163.6756" y="-305.3" font-family="Times,serif" font-size="14.00" fill="#000000">IDLE</text>
</g>
<!-- START -->
<g id="node3" class="node">
<title>START</title>
<ellipse fill="none" stroke="#000000" cx="46.6756" cy="-222" rx="38.1938" ry="18"/>
<text text-anchor="middle" x="46.6756" y="-218.3" font-family="Times,serif" font-size="14.00" fill="#000000">START</text>
</g>
<!-- IDLE&#45;&gt;START -->
<g id="edge1" class="edge">
<title>IDLE&#45;&gt;START</title>
<path fill="none" stroke="#000000" d="M133.2785,-306.5892C91.4769,-302.5709 19.5944,-292.8986 3.6756,-273 -4.6128,-262.6396 3.1285,-251.3384 14.2124,-242.0133"/>
<polygon fill="#000000" stroke="#000000" points="16.4098,-244.7396 22.2641,-235.909 12.1808,-239.1615 16.4098,-244.7396"/>
<text text-anchor="middle" x="76.6756" y="-261.8" font-family="Times,serif" font-size="14.00" fill="#000000">on EMCMOT_HOME(&#45;1)</text>
</g>
<!-- START_JOINTS -->
<g id="node2" class="node">
<title>START_JOINTS</title>
<ellipse fill="none" stroke="#000000" cx="111.6756" cy="-120" rx="72.2875" ry="18"/>
<text text-anchor="middle" x="111.6756" y="-116.3" font-family="Times,serif" font-size="14.00" fill="#000000">START_JOINTS</text>
</g>
<!-- START_JOINTS&#45;&gt;IDLE -->
<g id="edge5" class="edge">
<title>START_JOINTS&#45;&gt;IDLE</title>
<path fill="none" stroke="#000000" d="M116.7205,-138.3032C124.0035,-164.7298 137.8835,-215.1099 149.6756,-258 151.7506,-265.5474 153.9961,-273.7237 156.0685,-281.2731"/>
<polygon fill="#000000" stroke="#000000" points="152.733,-282.3441 158.7549,-291.0612 159.4834,-280.4914 152.733,-282.3441"/>
<text text-anchor="middle" x="184.6756" y="-218.3" font-family="Times,serif" font-size="14.00" fill="#000000">if no joints left</text>
</g>
<!-- WAIT_JOINTS -->
<g id="node4" class="node">
<title>WAIT_JOINTS</title>
<ellipse fill="none" stroke="#000000" cx="128.6756" cy="-18" rx="67.6881" ry="18"/>
<text text-anchor="middle" x="128.6756" y="-14.3" font-family="Times,serif" font-size="14.00" fill="#000000">WAIT_JOINTS</text>
</g>
<!-- START_JOINTS&#45;&gt;WAIT_JOINTS -->
<g id="edge3" class="edge">
<title>START_JOINTS&#45;&gt;WAIT_JOINTS</title>
<path fill="none" stroke="#000000" d="M108.5106,-101.7925C106.8052,-88.3793 105.7617,-69.8008 109.6756,-54 110.4163,-51.0096 111.4557,-47.9937 112.6706,-45.0477"/>
<polygon fill="#000000" stroke="#000000" points="115.8441,-46.5242 116.9984,-35.9925 109.5283,-43.5057 115.8441,-46.5242"/>
</g>
<!-- START&#45;&gt;START_JOINTS -->
<g id="edge2" class="edge">
<title>START&#45;&gt;START_JOINTS</title>
<path fill="none" stroke="#000000" d="M57.7019,-204.6971C67.8493,-188.7736 83.0518,-164.9173 94.7391,-146.5771"/>
<polygon fill="#000000" stroke="#000000" points="97.7341,-148.39 100.1566,-138.0758 91.8309,-144.6281 97.7341,-148.39"/>
</g>
<!-- WAIT_JOINTS&#45;&gt;IDLE -->
<g id="edge6" class="edge">
<title>WAIT_JOINTS&#45;&gt;IDLE</title>
<path fill="none" stroke="#000000" d="M186.5814,-27.4396C215.8219,-33.5111 246.9346,-42.4369 255.6756,-54 306.0104,-120.5861 267.0432,-165.3611 229.6756,-240 220.3702,-258.5867 204.3464,-275.5194 190.4181,-287.9593"/>
<polygon fill="#000000" stroke="#000000" points="187.828,-285.5703 182.5261,-294.7431 192.391,-290.8787 187.828,-285.5703"/>
<text text-anchor="middle" x="323.1756" y="-174.8" font-family="Times,serif" font-size="14.00" fill="#000000">a joint had an error</text>
<text text-anchor="middle" x="323.1756" y="-159.8" font-family="Times,serif" font-size="14.00" fill="#000000">on its way home</text>
</g>
<!-- WAIT_JOINTS&#45;&gt;START_JOINTS -->
<g id="edge4" class="edge">
<title>WAIT_JOINTS&#45;&gt;START_JOINTS</title>
<path fill="none" stroke="#000000" d="M125.6626,-36.0777C123.096,-51.4776 119.3636,-73.8717 116.3999,-91.6541"/>
<polygon fill="#000000" stroke="#000000" points="112.9065,-91.3251 114.7148,-101.7644 119.8113,-92.4759 112.9065,-91.3251"/>
<text text-anchor="middle" x="186.6756" y="-72.8" font-family="Times,serif" font-size="14.00" fill="#000000">all joints in this</text>
<text text-anchor="middle" x="186.6756" y="-57.8" font-family="Times,serif" font-size="14.00" fill="#000000">sequence reached home</text>
</g>
<!-- WAIT_JOINTS&#45;&gt;WAIT_JOINTS -->
<g id="edge7" class="edge">
<title>WAIT_JOINTS&#45;&gt;WAIT_JOINTS</title>
<path fill="none" stroke="#000000" d="M186.6833,-27.3058C202.3504,-26.8148 214.2696,-23.7129 214.2696,-18 214.2696,-13.5814 207.1395,-10.7248 196.6599,-9.43"/>
<polygon fill="#000000" stroke="#000000" points="196.9137,-5.9393 186.6833,-8.6942 196.3988,-12.9203 196.9137,-5.9393"/>
</g>
</g>
</svg>
