<?xml version="1.0" encoding="UTF-8" standalone="no"?>
<!DOCTYPE svg PUBLIC "-//W3C//DTD SVG 1.1//EN"
 "http://www.w3.org/Graphics/SVG/1.1/DTD/svg11.dtd">
<!-- Generated by graphviz version 2.43.0 (0)
 -->
<!-- Title: homing Pages: 1 -->
<svg width="923pt" height="1448pt"
 viewBox="0.00 0.00 922.54 1448.00" xmlns="http://www.w3.org/2000/svg" xmlns:xlink="http://www.w3.org/1999/xlink">
<g id="graph0" class="graph" transform="scale(1 1) rotate(0) translate(4 1444)">
<title>homing</title>
<polygon fill="white" stroke="transparent" points="-4,4 -4,-1444 918.54,-1444 918.54,4 -4,4"/>
<!-- HOME_IDLE -->
<g id="node1" class="node">
<title>HOME_IDLE</title>
<ellipse fill="none" stroke="black" cx="147.54" cy="-1422" rx="69.59" ry="18"/>
<text text-anchor="middle" x="147.54" y="-1418.3" font-family="Times,serif" font-size="14.00">HOME_IDLE</text>
</g>
<!-- HOME_START -->
<g id="node2" class="node">
<title>HOME_START</title>
<ellipse fill="none" stroke="black" cx="179.54" cy="-1320" rx="77.19" ry="18"/>
<text text-anchor="middle" x="179.54" y="-1316.3" font-family="Times,serif" font-size="14.00">HOME_START</text>
</g>
<!-- HOME_IDLE&#45;&gt;HOME_START -->
<g id="edge1" class="edge">
<title>HOME_IDLE&#45;&gt;HOME_START</title>
<path fill="none" stroke="black" d="M91.35,-1411.07C77.76,-1405.89 64.78,-1398 56.54,-1386 48.99,-1375.01 48.51,-1366.64 56.54,-1356 63.57,-1346.7 85.53,-1339.13 108.99,-1333.45"/>
<polygon fill="black" stroke="black" points="109.78,-1336.86 118.74,-1331.21 108.21,-1330.04 109.78,-1336.86"/>
<text text-anchor="middle" x="137.54" y="-1367.3" font-family="Times,serif" font-size="14.00">on EMCMOT_HOME(j)</text>
</g>
<!-- HOME_START&#45;&gt;HOME_IDLE -->
<g id="edge2" class="edge">
<title>HOME_START&#45;&gt;HOME_IDLE</title>
<path fill="none" stroke="black" d="M204.08,-1337.35C209.91,-1342.56 215.35,-1348.86 218.54,-1356 223.97,-1368.18 225.58,-1374.68 218.54,-1386 214.25,-1392.89 208.17,-1398.47 201.34,-1402.97"/>
<polygon fill="black" stroke="black" points="199.3,-1400.1 192.37,-1408.11 202.79,-1406.17 199.3,-1400.1"/>
<text text-anchor="middle" x="271.04" y="-1374.8" font-family="Times,serif" font-size="14.00">shared home</text>
<text text-anchor="middle" x="271.04" y="-1359.8" font-family="Times,serif" font-size="14.00">switch closed</text>
</g>
<!-- HOME_SET_SWITCH_POSITION -->
<g id="node3" class="node">
<title>HOME_SET_SWITCH_POSITION</title>
<ellipse fill="none" stroke="black" cx="202.54" cy="-483" rx="161.37" ry="18"/>
<text text-anchor="middle" x="202.54" y="-479.3" font-family="Times,serif" font-size="14.00">HOME_SET_SWITCH_POSITION</text>
</g>
<!-- HOME_START&#45;&gt;HOME_SET_SWITCH_POSITION -->
<g id="edge3" class="edge">
<title>HOME_START&#45;&gt;HOME_SET_SWITCH_POSITION</title>
<path fill="none" stroke="black" d="M138.91,-1304.51C104.1,-1289.18 59.54,-1261.31 59.54,-1219 59.54,-1219 59.54,-1219 59.54,-599 59.54,-552.99 105.05,-522.29 144.73,-504.27"/>
<polygon fill="black" stroke="black" points="146.35,-507.38 154.13,-500.18 143.56,-500.96 146.35,-507.38"/>
<text text-anchor="middle" x="138.54" y="-900.8" font-family="Times,serif" font-size="14.00">no switch for this axis</text>
<text text-anchor="middle" x="138.54" y="-885.8" font-family="Times,serif" font-size="14.00">immediate</text>
</g>
<!-- HOME_INITIAL_SEARCH_START -->
<g id="node4" class="node">
<title>HOME_INITIAL_SEARCH_START</title>
<ellipse fill="none" stroke="black" cx="318.54" cy="-1218" rx="163.27" ry="18"/>
<text text-anchor="middle" x="318.54" y="-1214.3" font-family="Times,serif" font-size="14.00">HOME_INITIAL_SEARCH_START</text>
</g>
<!-- HOME_START&#45;&gt;HOME_INITIAL_SEARCH_START -->
<g id="edge4" class="edge">
<title>HOME_START&#45;&gt;HOME_INITIAL_SEARCH_START</title>
<path fill="none" stroke="black" d="M202.18,-1302.71C225.13,-1286.2 260.83,-1260.52 286.64,-1241.95"/>
<polygon fill="black" stroke="black" points="288.91,-1244.63 294.98,-1235.95 284.82,-1238.95 288.91,-1244.63"/>
<text text-anchor="middle" x="307.54" y="-1272.8" font-family="Times,serif" font-size="14.00">otherwise</text>
<text text-anchor="middle" x="307.54" y="-1257.8" font-family="Times,serif" font-size="14.00">immediate</text>
</g>
<!-- HOME_FINAL_MOVE_START -->
<g id="node18" class="node">
<title>HOME_FINAL_MOVE_START</title>
<ellipse fill="none" stroke="black" cx="226.54" cy="-207" rx="145.67" ry="18"/>
<text text-anchor="middle" x="226.54" y="-203.3" font-family="Times,serif" font-size="14.00">HOME_FINAL_MOVE_START</text>
</g>
<!-- HOME_SET_SWITCH_POSITION&#45;&gt;HOME_FINAL_MOVE_START -->
<g id="edge22" class="edge">
<title>HOME_SET_SWITCH_POSITION&#45;&gt;HOME_FINAL_MOVE_START</title>
<path fill="none" stroke="black" d="M204.04,-464.86C208.08,-418.73 219.22,-291.64 224.14,-235.39"/>
<polygon fill="black" stroke="black" points="227.65,-235.4 225.04,-225.13 220.68,-234.79 227.65,-235.4"/>
<text text-anchor="middle" x="253.54" y="-341.3" font-family="Times,serif" font-size="14.00">immediate</text>
</g>
<!-- HOME_INITIAL_BACKOFF_START -->
<g id="node5" class="node">
<title>HOME_INITIAL_BACKOFF_START</title>
<ellipse fill="none" stroke="black" cx="386.54" cy="-1101" rx="168.17" ry="18"/>
<text text-anchor="middle" x="386.54" y="-1097.3" font-family="Times,serif" font-size="14.00">HOME_INITIAL_BACKOFF_START</text>
</g>
<!-- HOME_INITIAL_SEARCH_START&#45;&gt;HOME_INITIAL_BACKOFF_START -->
<g id="edge7" class="edge">
<title>HOME_INITIAL_SEARCH_START&#45;&gt;HOME_INITIAL_BACKOFF_START</title>
<path fill="none" stroke="black" d="M328.58,-1200.03C339.82,-1181.01 358.2,-1149.94 371.24,-1127.88"/>
<polygon fill="black" stroke="black" points="374.39,-1129.43 376.47,-1119.04 368.36,-1125.86 374.39,-1129.43"/>
<text text-anchor="middle" x="441.54" y="-1170.8" font-family="Times,serif" font-size="14.00">after HOME_DELAY</text>
<text text-anchor="middle" x="441.54" y="-1155.8" font-family="Times,serif" font-size="14.00">if home switch closed</text>
<text text-anchor="middle" x="441.54" y="-1140.8" font-family="Times,serif" font-size="14.00">immediate</text>
</g>
<!-- HOME_INITIAL_SEARCH_WAIT -->
<g id="node7" class="node">
<title>HOME_INITIAL_SEARCH_WAIT</title>
<ellipse fill="none" stroke="black" cx="729.54" cy="-1101" rx="156.77" ry="18"/>
<text text-anchor="middle" x="729.54" y="-1097.3" font-family="Times,serif" font-size="14.00">HOME_INITIAL_SEARCH_WAIT</text>
</g>
<!-- HOME_INITIAL_SEARCH_START&#45;&gt;HOME_INITIAL_SEARCH_WAIT -->
<g id="edge8" class="edge">
<title>HOME_INITIAL_SEARCH_START&#45;&gt;HOME_INITIAL_SEARCH_WAIT</title>
<path fill="none" stroke="black" d="M419.29,-1203.79C452.48,-1198.36 489.38,-1191.16 522.54,-1182 579.56,-1166.26 642.65,-1140.62 684.01,-1122.62"/>
<polygon fill="black" stroke="black" points="685.52,-1125.78 693.27,-1118.56 682.7,-1119.37 685.52,-1125.78"/>
<text text-anchor="middle" x="718.54" y="-1170.8" font-family="Times,serif" font-size="14.00">after HOME_DELAY</text>
<text text-anchor="middle" x="718.54" y="-1155.8" font-family="Times,serif" font-size="14.00">if home switch open</text>
<text text-anchor="middle" x="718.54" y="-1140.8" font-family="Times,serif" font-size="14.00">immediate</text>
</g>
<!-- HOME_INITIAL_BACKOFF_WAIT -->
<g id="node6" class="node">
<title>HOME_INITIAL_BACKOFF_WAIT</title>
<ellipse fill="none" stroke="black" cx="275.54" cy="-999" rx="161.67" ry="18"/>
<text text-anchor="middle" x="275.54" y="-995.3" font-family="Times,serif" font-size="14.00">HOME_INITIAL_BACKOFF_WAIT</text>
</g>
<!-- HOME_INITIAL_BACKOFF_START&#45;&gt;HOME_INITIAL_BACKOFF_WAIT -->
<g id="edge5" class="edge">
<title>HOME_INITIAL_BACKOFF_START&#45;&gt;HOME_INITIAL_BACKOFF_WAIT</title>
<path fill="none" stroke="black" d="M367.71,-1083.04C349.69,-1066.8 322.34,-1042.16 302.11,-1023.93"/>
<polygon fill="black" stroke="black" points="304.24,-1021.14 294.46,-1017.05 299.55,-1026.34 304.24,-1021.14"/>
<text text-anchor="middle" x="418.54" y="-1046.3" font-family="Times,serif" font-size="14.00">after HOME_DELAY</text>
</g>
<!-- HOME_INITIAL_BACKOFF_WAIT&#45;&gt;HOME_INITIAL_SEARCH_START -->
<g id="edge6" class="edge">
<title>HOME_INITIAL_BACKOFF_WAIT&#45;&gt;HOME_INITIAL_SEARCH_START</title>
<path fill="none" stroke="black" d="M217.92,-1015.84C160.18,-1034.84 83.91,-1070.31 114.54,-1119 140.7,-1160.59 189.98,-1184.93 233.54,-1198.95"/>
<polygon fill="black" stroke="black" points="232.73,-1202.36 243.32,-1201.96 234.79,-1195.67 232.73,-1202.36"/>
<text text-anchor="middle" x="162.04" y="-1097.3" font-family="Times,serif" font-size="14.00">home_sw_fall</text>
</g>
<!-- HOME_SET_COARSE_POSITION -->
<g id="node8" class="node">
<title>HOME_SET_COARSE_POSITION</title>
<ellipse fill="none" stroke="black" cx="643.54" cy="-999" rx="162.47" ry="18"/>
<text text-anchor="middle" x="643.54" y="-995.3" font-family="Times,serif" font-size="14.00">HOME_SET_COARSE_POSITION</text>
</g>
<!-- HOME_INITIAL_SEARCH_WAIT&#45;&gt;HOME_SET_COARSE_POSITION -->
<g id="edge9" class="edge">
<title>HOME_INITIAL_SEARCH_WAIT&#45;&gt;HOME_SET_COARSE_POSITION</title>
<path fill="none" stroke="black" d="M714.95,-1083.04C701.24,-1067.09 680.55,-1043.03 664.96,-1024.91"/>
<polygon fill="black" stroke="black" points="667.38,-1022.35 658.2,-1017.05 662.07,-1026.91 667.38,-1022.35"/>
<text text-anchor="middle" x="748.54" y="-1053.8" font-family="Times,serif" font-size="14.00">home_sw_rise</text>
<text text-anchor="middle" x="748.54" y="-1038.8" font-family="Times,serif" font-size="14.00">immediate</text>
</g>
<!-- HOME_FINAL_BACKOFF_START -->
<g id="node9" class="node">
<title>HOME_FINAL_BACKOFF_START</title>
<ellipse fill="none" stroke="black" cx="644.54" cy="-897" rx="161.67" ry="18"/>
<text text-anchor="middle" x="644.54" y="-893.3" font-family="Times,serif" font-size="14.00">HOME_FINAL_BACKOFF_START</text>
</g>
<!-- HOME_SET_COARSE_POSITION&#45;&gt;HOME_FINAL_BACKOFF_START -->
<g id="edge10" class="edge">
<title>HOME_SET_COARSE_POSITION&#45;&gt;HOME_FINAL_BACKOFF_START</title>
<path fill="none" stroke="black" d="M643.72,-980.58C643.87,-965.38 644.09,-943.07 644.27,-925.46"/>
<polygon fill="black" stroke="black" points="647.77,-925.25 644.37,-915.22 640.77,-925.18 647.77,-925.25"/>
<text text-anchor="middle" x="771.54" y="-951.8" font-family="Times,serif" font-size="14.00">search and latch are same direction</text>
<text text-anchor="middle" x="771.54" y="-936.8" font-family="Times,serif" font-size="14.00">immediate</text>
</g>
<!-- HOME_FALL_SEARCH_START -->
<g id="node10" class="node">
<title>HOME_FALL_SEARCH_START</title>
<ellipse fill="none" stroke="black" cx="340.54" cy="-843" rx="150.27" ry="18"/>
<text text-anchor="middle" x="340.54" y="-839.3" font-family="Times,serif" font-size="14.00">HOME_FALL_SEARCH_START</text>
</g>
<!-- HOME_SET_COARSE_POSITION&#45;&gt;HOME_FALL_SEARCH_START -->
<g id="edge11" class="edge">
<title>HOME_SET_COARSE_POSITION&#45;&gt;HOME_FALL_SEARCH_START</title>
<path fill="none" stroke="black" d="M524.9,-986.63C449.85,-978.9 365.79,-969.03 359.54,-963 335.22,-939.53 334.03,-898.29 336.46,-871.06"/>
<polygon fill="black" stroke="black" points="339.95,-871.35 337.57,-861.03 332.99,-870.58 339.95,-871.35"/>
<text text-anchor="middle" x="499.54" y="-951.8" font-family="Times,serif" font-size="14.00">search and latch are opposite direction</text>
<text text-anchor="middle" x="499.54" y="-936.8" font-family="Times,serif" font-size="14.00">immediate</text>
</g>
<!-- HOME_FINAL_BACKOFF_WAIT -->
<g id="node11" class="node">
<title>HOME_FINAL_BACKOFF_WAIT</title>
<ellipse fill="none" stroke="black" cx="644.54" cy="-789" rx="155.17" ry="18"/>
<text text-anchor="middle" x="644.54" y="-785.3" font-family="Times,serif" font-size="14.00">HOME_FINAL_BACKOFF_WAIT</text>
</g>
<!-- HOME_FINAL_BACKOFF_START&#45;&gt;HOME_FINAL_BACKOFF_WAIT -->
<g id="edge12" class="edge">
<title>HOME_FINAL_BACKOFF_START&#45;&gt;HOME_FINAL_BACKOFF_WAIT</title>
<path fill="none" stroke="black" d="M644.54,-878.97C644.54,-862.38 644.54,-836.88 644.54,-817.43"/>
<polygon fill="black" stroke="black" points="648.04,-817.34 644.54,-807.34 641.04,-817.34 648.04,-817.34"/>
<text text-anchor="middle" x="716.54" y="-839.3" font-family="Times,serif" font-size="14.00">after HOME_DELAY</text>
</g>
<!-- HOME_FALL_SEARCH_WAIT -->
<g id="node15" class="node">
<title>HOME_FALL_SEARCH_WAIT</title>
<ellipse fill="none" stroke="black" cx="339.54" cy="-600" rx="143.77" ry="18"/>
<text text-anchor="middle" x="339.54" y="-596.3" font-family="Times,serif" font-size="14.00">HOME_FALL_SEARCH_WAIT</text>
</g>
<!-- HOME_FALL_SEARCH_START&#45;&gt;HOME_FALL_SEARCH_WAIT -->
<g id="edge17" class="edge">
<title>HOME_FALL_SEARCH_START&#45;&gt;HOME_FALL_SEARCH_WAIT</title>
<path fill="none" stroke="black" d="M340.47,-824.67C340.3,-783.24 339.86,-678.22 339.65,-628.24"/>
<polygon fill="black" stroke="black" points="343.15,-628.16 339.61,-618.18 336.15,-628.19 343.15,-628.16"/>
<text text-anchor="middle" x="411.54" y="-734.3" font-family="Times,serif" font-size="14.00">after HOME_DELAY</text>
</g>
<!-- HOME_RISE_SEARCH_START -->
<g id="node12" class="node">
<title>HOME_RISE_SEARCH_START</title>
<ellipse fill="none" stroke="black" cx="644.54" cy="-687" rx="150.27" ry="18"/>
<text text-anchor="middle" x="644.54" y="-683.3" font-family="Times,serif" font-size="14.00">HOME_RISE_SEARCH_START</text>
</g>
<!-- HOME_FINAL_BACKOFF_WAIT&#45;&gt;HOME_RISE_SEARCH_START -->
<g id="edge13" class="edge">
<title>HOME_FINAL_BACKOFF_WAIT&#45;&gt;HOME_RISE_SEARCH_START</title>
<path fill="none" stroke="black" d="M644.54,-770.58C644.54,-755.38 644.54,-733.07 644.54,-715.46"/>
<polygon fill="black" stroke="black" points="648.04,-715.22 644.54,-705.22 641.04,-715.22 648.04,-715.22"/>
<text text-anchor="middle" x="692.04" y="-741.8" font-family="Times,serif" font-size="14.00">home_sw_fall</text>
<text text-anchor="middle" x="692.04" y="-726.8" font-family="Times,serif" font-size="14.00">immediate</text>
</g>
<!-- HOME_RISE_SEARCH_WAIT -->
<g id="node13" class="node">
<title>HOME_RISE_SEARCH_WAIT</title>
<ellipse fill="none" stroke="black" cx="644.54" cy="-600" rx="143.77" ry="18"/>
<text text-anchor="middle" x="644.54" y="-596.3" font-family="Times,serif" font-size="14.00">HOME_RISE_SEARCH_WAIT</text>
</g>
<!-- HOME_RISE_SEARCH_START&#45;&gt;HOME_RISE_SEARCH_WAIT -->
<g id="edge14" class="edge">
<title>HOME_RISE_SEARCH_START&#45;&gt;HOME_RISE_SEARCH_WAIT</title>
<path fill="none" stroke="black" d="M644.54,-668.8C644.54,-657.16 644.54,-641.55 644.54,-628.24"/>
<polygon fill="black" stroke="black" points="648.04,-628.18 644.54,-618.18 641.04,-628.18 648.04,-628.18"/>
<text text-anchor="middle" x="716.54" y="-639.8" font-family="Times,serif" font-size="14.00">after HOME_DELAY</text>
</g>
<!-- HOME_RISE_SEARCH_WAIT&#45;&gt;HOME_SET_SWITCH_POSITION -->
<g id="edge16" class="edge">
<title>HOME_RISE_SEARCH_WAIT&#45;&gt;HOME_SET_SWITCH_POSITION</title>
<path fill="none" stroke="black" d="M557.34,-585.56C543.59,-580.49 530.36,-573.53 519.54,-564 503.25,-549.65 517.9,-532.04 500.54,-519 496.85,-516.23 405.96,-505.8 325.52,-497.05"/>
<polygon fill="black" stroke="black" points="325.59,-493.53 315.27,-495.93 324.83,-500.49 325.59,-493.53"/>
<text text-anchor="middle" x="594.04" y="-552.8" font-family="Times,serif" font-size="14.00">home_sw_rise</text>
<text text-anchor="middle" x="594.04" y="-537.8" font-family="Times,serif" font-size="14.00">!HOME_USE_INDEX</text>
<text text-anchor="middle" x="594.04" y="-522.8" font-family="Times,serif" font-size="14.00">immediate</text>
</g>
<!-- HOME_INDEX_SEARCH_START -->
<g id="node14" class="node">
<title>HOME_INDEX_SEARCH_START</title>
<ellipse fill="none" stroke="black" cx="540.54" cy="-483" rx="158.67" ry="18"/>
<text text-anchor="middle" x="540.54" y="-479.3" font-family="Times,serif" font-size="14.00">HOME_INDEX_SEARCH_START</text>
</g>
<!-- HOME_RISE_SEARCH_WAIT&#45;&gt;HOME_INDEX_SEARCH_START -->
<g id="edge15" class="edge">
<title>HOME_RISE_SEARCH_WAIT&#45;&gt;HOME_INDEX_SEARCH_START</title>
<path fill="none" stroke="black" d="M661.96,-581.91C666.26,-576.62 670.27,-570.46 672.54,-564 679.16,-545.13 684.74,-534.85 672.54,-519 666.99,-511.79 652.9,-505.75 635.88,-500.84"/>
<polygon fill="black" stroke="black" points="636.73,-497.44 626.16,-498.22 634.91,-504.2 636.73,-497.44"/>
<text text-anchor="middle" x="751.04" y="-552.8" font-family="Times,serif" font-size="14.00">home_sw_rise</text>
<text text-anchor="middle" x="751.04" y="-537.8" font-family="Times,serif" font-size="14.00">HOME_USE_INDEX</text>
<text text-anchor="middle" x="751.04" y="-522.8" font-family="Times,serif" font-size="14.00">immediate</text>
</g>
<!-- HOME_INDEX_SEARCH_WAIT -->
<g id="node16" class="node">
<title>HOME_INDEX_SEARCH_WAIT</title>
<ellipse fill="none" stroke="black" cx="454.54" cy="-396" rx="152.17" ry="18"/>
<text text-anchor="middle" x="454.54" y="-392.3" font-family="Times,serif" font-size="14.00">HOME_INDEX_SEARCH_WAIT</text>
</g>
<!-- HOME_INDEX_SEARCH_START&#45;&gt;HOME_INDEX_SEARCH_WAIT -->
<g id="edge20" class="edge">
<title>HOME_INDEX_SEARCH_START&#45;&gt;HOME_INDEX_SEARCH_WAIT</title>
<path fill="none" stroke="black" d="M523.14,-464.8C510.55,-452.36 493.36,-435.36 479.33,-421.5"/>
<polygon fill="black" stroke="black" points="481.49,-418.72 471.92,-414.18 476.57,-423.69 481.49,-418.72"/>
<text text-anchor="middle" x="540.54" y="-435.8" font-family="Times,serif" font-size="14.00">immediate</text>
</g>
<!-- HOME_FALL_SEARCH_WAIT&#45;&gt;HOME_SET_SWITCH_POSITION -->
<g id="edge19" class="edge">
<title>HOME_FALL_SEARCH_WAIT&#45;&gt;HOME_SET_SWITCH_POSITION</title>
<path fill="none" stroke="black" d="M241.83,-586.71C216.24,-581.39 193.54,-574.02 185.54,-564 173.55,-548.97 179,-527.46 186.8,-510.52"/>
<polygon fill="black" stroke="black" points="190.14,-511.67 191.54,-501.17 183.9,-508.5 190.14,-511.67"/>
<text text-anchor="middle" x="260.04" y="-552.8" font-family="Times,serif" font-size="14.00">home_sw_fall</text>
<text text-anchor="middle" x="260.04" y="-537.8" font-family="Times,serif" font-size="14.00">!HOME_USE_INDEX</text>
<text text-anchor="middle" x="260.04" y="-522.8" font-family="Times,serif" font-size="14.00">immediate</text>
</g>
<!-- HOME_FALL_SEARCH_WAIT&#45;&gt;HOME_INDEX_SEARCH_START -->
<g id="edge18" class="edge">
<title>HOME_FALL_SEARCH_WAIT&#45;&gt;HOME_INDEX_SEARCH_START</title>
<path fill="none" stroke="black" d="M338.35,-581.72C338.1,-563.5 340.77,-535.24 357.54,-519 367.27,-509.58 390.21,-502.58 416.67,-497.42"/>
<polygon fill="black" stroke="black" points="417.36,-500.85 426.56,-495.6 416.1,-493.97 417.36,-500.85"/>
<text text-anchor="middle" x="429.04" y="-552.8" font-family="Times,serif" font-size="14.00">home_sw_fall</text>
<text text-anchor="middle" x="429.04" y="-537.8" font-family="Times,serif" font-size="14.00">HOME_USE_INDEX</text>
<text text-anchor="middle" x="429.04" y="-522.8" font-family="Times,serif" font-size="14.00">immediate</text>
</g>
<!-- HOME_SET_INDEX_POSITION -->
<g id="node17" class="node">
<title>HOME_SET_INDEX_POSITION</title>
<ellipse fill="none" stroke="black" cx="397.54" cy="-294" rx="153.27" ry="18"/>
<text text-anchor="middle" x="397.54" y="-290.3" font-family="Times,serif" font-size="14.00">HOME_SET_INDEX_POSITION</text>
</g>
<!-- HOME_INDEX_SEARCH_WAIT&#45;&gt;HOME_SET_INDEX_POSITION -->
<g id="edge21" class="edge">
<title>HOME_INDEX_SEARCH_WAIT&#45;&gt;HOME_SET_INDEX_POSITION</title>
<path fill="none" stroke="black" d="M444.87,-378.04C435.95,-362.38 422.56,-338.89 412.3,-320.89"/>
<polygon fill="black" stroke="black" points="415.25,-319 407.26,-312.05 409.17,-322.47 415.25,-319"/>
<text text-anchor="middle" x="472.04" y="-348.8" font-family="Times,serif" font-size="14.00">index seen</text>
<text text-anchor="middle" x="472.04" y="-333.8" font-family="Times,serif" font-size="14.00">immediate</text>
</g>
<!-- HOME_SET_INDEX_POSITION&#45;&gt;HOME_FINAL_MOVE_START -->
<g id="edge23" class="edge">
<title>HOME_SET_INDEX_POSITION&#45;&gt;HOME_FINAL_MOVE_START</title>
<path fill="none" stroke="black" d="M364.17,-276.41C336.98,-262.89 298.42,-243.73 269.03,-229.12"/>
<polygon fill="black" stroke="black" points="270.35,-225.87 259.83,-224.55 267.23,-232.13 270.35,-225.87"/>
<text text-anchor="middle" x="359.54" y="-246.8" font-family="Times,serif" font-size="14.00">immediate</text>
</g>
<!-- HOME_FINAL_MOVE_WAIT -->
<g id="node19" class="node">
<title>HOME_FINAL_MOVE_WAIT</title>
<ellipse fill="none" stroke="black" cx="226.54" cy="-120" rx="139.18" ry="18"/>
<text text-anchor="middle" x="226.54" y="-116.3" font-family="Times,serif" font-size="14.00">HOME_FINAL_MOVE_WAIT</text>
</g>
<!-- HOME_FINAL_MOVE_START&#45;&gt;HOME_FINAL_MOVE_WAIT -->
<g id="edge24" class="edge">
<title>HOME_FINAL_MOVE_START&#45;&gt;HOME_FINAL_MOVE_WAIT</title>
<path fill="none" stroke="black" d="M226.54,-188.8C226.54,-177.16 226.54,-161.55 226.54,-148.24"/>
<polygon fill="black" stroke="black" points="230.04,-148.18 226.54,-138.18 223.04,-148.18 230.04,-148.18"/>
<text text-anchor="middle" x="298.54" y="-159.8" font-family="Times,serif" font-size="14.00">after HOME_DELAY</text>
</g>
<!-- HOME_ABORT -->
<g id="node20" class="node">
<title>HOME_ABORT</title>
<ellipse fill="none" stroke="black" cx="478.54" cy="-18" rx="79.09" ry="18"/>
<text text-anchor="middle" x="478.54" y="-14.3" font-family="Times,serif" font-size="14.00">HOME_ABORT</text>
</g>
<!-- HOME_FINAL_MOVE_WAIT&#45;&gt;HOME_ABORT -->
<g id="edge25" class="edge">
<title>HOME_FINAL_MOVE_WAIT&#45;&gt;HOME_ABORT</title>
<path fill="none" stroke="black" d="M282.75,-103.48C301.34,-97.88 322,-91.17 340.54,-84 374.57,-70.84 411.93,-53.02 439.19,-39.37"/>
<polygon fill="black" stroke="black" points="441.04,-42.36 448.39,-34.73 437.89,-36.11 441.04,-42.36"/>
<text text-anchor="middle" x="433.04" y="-65.3" font-family="Times,serif" font-size="14.00">on limit</text>
</g>
<!-- HOME_FINISHED -->
<g id="node21" class="node">
<title>HOME_FINISHED</title>
<ellipse fill="none" stroke="black" cx="95.54" cy="-18" rx="95.58" ry="18"/>
<text text-anchor="middle" x="95.54" y="-14.3" font-family="Times,serif" font-size="14.00">HOME_FINISHED</text>
</g>
<!-- HOME_FINAL_MOVE_WAIT&#45;&gt;HOME_FINISHED -->
<g id="edge26" class="edge">
<title>HOME_FINAL_MOVE_WAIT&#45;&gt;HOME_FINISHED</title>
<path fill="none" stroke="black" d="M202.44,-102.15C194.45,-96.47 185.56,-90.04 177.54,-84 159.66,-70.54 140,-54.98 124.42,-42.46"/>
<polygon fill="black" stroke="black" points="126.2,-39.4 116.21,-35.85 121.8,-44.85 126.2,-39.4"/>
<text text-anchor="middle" x="259.04" y="-65.3" font-family="Times,serif" font-size="14.00">reached home position</text>
</g>
<!-- HOME_ABORT&#45;&gt;HOME_IDLE -->
<g id="edge29" class="edge">
<title>HOME_ABORT&#45;&gt;HOME_IDLE</title>
<path fill="none" stroke="black" d="M556.74,-21.06C682.21,-26.53 914.54,-46.44 914.54,-119 914.54,-1321 914.54,-1321 914.54,-1321 914.54,-1389.85 422.32,-1412.56 226.5,-1418.88"/>
<polygon fill="black" stroke="black" points="226.17,-1415.39 216.28,-1419.2 226.39,-1422.38 226.17,-1415.39"/>
</g>
<!-- HOME_FINISHED&#45;&gt;HOME_IDLE -->
<g id="edge27" class="edge">
<title>HOME_FINISHED&#45;&gt;HOME_IDLE</title>
<path fill="none" stroke="black" d="M69.6,-35.49C45.57,-53 13.54,-83.08 13.54,-119 13.54,-1321 13.54,-1321 13.54,-1321 13.54,-1353.6 22.88,-1364.68 47.54,-1386 58.12,-1395.15 71.24,-1401.95 84.46,-1406.99"/>
<polygon fill="black" stroke="black" points="83.47,-1410.35 94.06,-1410.36 85.78,-1403.75 83.47,-1410.35"/>
</g>
<!-- any -->
<g id="node22" class="node">
<title>any</title>
<ellipse fill="none" stroke="black" cx="478.54" cy="-120" rx="27.1" ry="18"/>
<text text-anchor="middle" x="478.54" y="-116.3" font-family="Times,serif" font-size="14.00">any</text>
</g>
<!-- any&#45;&gt;HOME_ABORT -->
<g id="edge28" class="edge">
<title>any&#45;&gt;HOME_ABORT</title>
<path fill="none" stroke="black" d="M478.54,-101.58C478.54,-86.38 478.54,-64.07 478.54,-46.46"/>
<polygon fill="black" stroke="black" points="482.04,-46.22 478.54,-36.22 475.04,-46.22 482.04,-46.22"/>
<text text-anchor="middle" x="522.54" y="-72.8" font-family="Times,serif" font-size="14.00">hit limit</text>
<text text-anchor="middle" x="522.54" y="-57.8" font-family="Times,serif" font-size="14.00">end of move</text>
</g>
</g>
</svg>
