<?xml version="1.0" encoding="UTF-8" standalone="no"?>
<!DOCTYPE svg PUBLIC "-//W3C//DTD SVG 1.1//EN"
 "http://www.w3.org/Graphics/SVG/1.1/DTD/svg11.dtd">
<!-- Generated by graphviz version 2.43.0 (0)
 -->
<!-- Title: task&#45;state&#45;transition Pages: 1 -->
<svg width="264pt" height="218pt"
 viewBox="0.00 0.00 263.93 218.00" xmlns="http://www.w3.org/2000/svg" xmlns:xlink="http://www.w3.org/1999/xlink">
<g id="graph0" class="graph" transform="scale(1 1) rotate(0) translate(4 214)">
<title>task&#45;state&#45;transition</title>
<polygon fill="white" stroke="transparent" points="-4,4 -4,-214 259.93,-214 259.93,4 -4,4"/>
<!-- E&#45;stop -->
<g id="node1" class="node">
<title>E&#45;stop</title>
<ellipse fill="none" stroke="black" stroke-width="2" cx="156.93" cy="-192" rx="40.09" ry="18"/>
<text text-anchor="middle" x="156.93" y="-188.3" font-family="Times,serif" font-size="14.00">E&#45;stop</text>
</g>
<!-- E&#45;stop Reset -->
<g id="node2" class="node">
<title>E&#45;stop Reset</title>
<ellipse fill="none" stroke="black" cx="76.93" cy="-105" rx="69.59" ry="18"/>
<text text-anchor="middle" x="76.93" y="-101.3" font-family="Times,serif" font-size="14.00">E&#45;stop Reset</text>
</g>
<!-- E&#45;stop&#45;&gt;E&#45;stop Reset -->
<g id="edge1" class="edge">
<title>E&#45;stop&#45;&gt;E&#45;stop Reset</title>
<path fill="none" stroke="black" d="M116.95,-189.39C92.75,-186.1 63.63,-177.52 47.93,-156 42.02,-147.89 45.16,-138.48 51.17,-130.03"/>
<polygon fill="black" stroke="black" points="53.91,-132.22 57.62,-122.3 48.53,-127.74 53.91,-132.22"/>
<text text-anchor="middle" x="91.43" y="-144.8" font-family="Times,serif" font-size="14.00">Estop Reset</text>
</g>
<!-- E&#45;stop Reset&#45;&gt;E&#45;stop -->
<g id="edge2" class="edge">
<title>E&#45;stop Reset&#45;&gt;E&#45;stop</title>
<path fill="none" stroke="black" d="M109.65,-121.04C118.7,-126.36 127.95,-133.05 134.93,-141 140.81,-147.68 145.34,-156.19 148.71,-164.28"/>
<polygon fill="black" stroke="black" points="145.49,-165.65 152.27,-173.79 152.04,-163.2 145.49,-165.65"/>
<text text-anchor="middle" x="165.93" y="-144.8" font-family="Times,serif" font-size="14.00">Estop</text>
</g>
<!-- Machine On -->
<g id="node3" class="node">
<title>Machine On</title>
<ellipse fill="none" stroke="black" cx="111.93" cy="-18" rx="66.09" ry="18"/>
<text text-anchor="middle" x="111.93" y="-14.3" font-family="Times,serif" font-size="14.00">Machine On</text>
</g>
<!-- E&#45;stop Reset&#45;&gt;Machine On -->
<g id="edge3" class="edge">
<title>E&#45;stop Reset&#45;&gt;Machine On</title>
<path fill="none" stroke="black" d="M32.26,-91.13C10.91,-82.6 -7.72,-70.03 3.93,-54 13.01,-41.51 26.65,-33.39 41.21,-28.13"/>
<polygon fill="black" stroke="black" points="42.39,-31.43 50.86,-25.07 40.27,-24.75 42.39,-31.43"/>
<text text-anchor="middle" x="46.93" y="-57.8" font-family="Times,serif" font-size="14.00">Machine On</text>
</g>
<!-- Machine On&#45;&gt;E&#45;stop -->
<g id="edge4" class="edge">
<title>Machine On&#45;&gt;E&#45;stop</title>
<path fill="none" stroke="black" d="M158.42,-30.86C169.92,-36.06 180.94,-43.48 187.93,-54 240.23,-132.64 200.67,-132 190.93,-156 189.17,-160.36 186.57,-164.47 183.58,-168.24"/>
<polygon fill="black" stroke="black" points="180.74,-166.16 176.59,-175.91 185.92,-170.87 180.74,-166.16"/>
<text text-anchor="middle" x="234.93" y="-101.3" font-family="Times,serif" font-size="14.00">Estop</text>
</g>
<!-- Machine On&#45;&gt;E&#45;stop Reset -->
<g id="edge5" class="edge">
<title>Machine On&#45;&gt;E&#45;stop Reset</title>
<path fill="none" stroke="black" d="M104.86,-36.18C99.98,-48.04 93.39,-64.04 87.84,-77.52"/>
<polygon fill="black" stroke="black" points="84.59,-76.22 84.02,-86.8 91.06,-78.88 84.59,-76.22"/>
<text text-anchor="middle" x="140.43" y="-57.8" font-family="Times,serif" font-size="14.00">Machine Off</text>
</g>
</g>
</svg>
